G75*
%MOIN*%
%OFA0B0*%
%FSLAX25Y25*%
%IPPOS*%
%LPD*%
%AMOC8*
5,1,8,0,0,1.08239X$1,22.5*
%
%ADD10C,0.00000*%
%ADD11C,0.12998*%
%ADD12OC8,0.05600*%
%ADD13C,0.06400*%
%ADD14C,0.05600*%
%ADD15OC8,0.08900*%
D10*
X0001000Y0001000D02*
X0001000Y0260843D01*
X0225409Y0260843D01*
X0225409Y0001000D01*
X0001000Y0001000D01*
X0009701Y0016000D02*
X0009703Y0016158D01*
X0009709Y0016316D01*
X0009719Y0016474D01*
X0009733Y0016632D01*
X0009751Y0016789D01*
X0009772Y0016946D01*
X0009798Y0017102D01*
X0009828Y0017258D01*
X0009861Y0017413D01*
X0009899Y0017566D01*
X0009940Y0017719D01*
X0009985Y0017871D01*
X0010034Y0018022D01*
X0010087Y0018171D01*
X0010143Y0018319D01*
X0010203Y0018465D01*
X0010267Y0018610D01*
X0010335Y0018753D01*
X0010406Y0018895D01*
X0010480Y0019035D01*
X0010558Y0019172D01*
X0010640Y0019308D01*
X0010724Y0019442D01*
X0010813Y0019573D01*
X0010904Y0019702D01*
X0010999Y0019829D01*
X0011096Y0019954D01*
X0011197Y0020076D01*
X0011301Y0020195D01*
X0011408Y0020312D01*
X0011518Y0020426D01*
X0011631Y0020537D01*
X0011746Y0020646D01*
X0011864Y0020751D01*
X0011985Y0020853D01*
X0012108Y0020953D01*
X0012234Y0021049D01*
X0012362Y0021142D01*
X0012492Y0021232D01*
X0012625Y0021318D01*
X0012760Y0021402D01*
X0012896Y0021481D01*
X0013035Y0021558D01*
X0013176Y0021630D01*
X0013318Y0021700D01*
X0013462Y0021765D01*
X0013608Y0021827D01*
X0013755Y0021885D01*
X0013904Y0021940D01*
X0014054Y0021991D01*
X0014205Y0022038D01*
X0014357Y0022081D01*
X0014510Y0022120D01*
X0014665Y0022156D01*
X0014820Y0022187D01*
X0014976Y0022215D01*
X0015132Y0022239D01*
X0015289Y0022259D01*
X0015447Y0022275D01*
X0015604Y0022287D01*
X0015763Y0022295D01*
X0015921Y0022299D01*
X0016079Y0022299D01*
X0016237Y0022295D01*
X0016396Y0022287D01*
X0016553Y0022275D01*
X0016711Y0022259D01*
X0016868Y0022239D01*
X0017024Y0022215D01*
X0017180Y0022187D01*
X0017335Y0022156D01*
X0017490Y0022120D01*
X0017643Y0022081D01*
X0017795Y0022038D01*
X0017946Y0021991D01*
X0018096Y0021940D01*
X0018245Y0021885D01*
X0018392Y0021827D01*
X0018538Y0021765D01*
X0018682Y0021700D01*
X0018824Y0021630D01*
X0018965Y0021558D01*
X0019104Y0021481D01*
X0019240Y0021402D01*
X0019375Y0021318D01*
X0019508Y0021232D01*
X0019638Y0021142D01*
X0019766Y0021049D01*
X0019892Y0020953D01*
X0020015Y0020853D01*
X0020136Y0020751D01*
X0020254Y0020646D01*
X0020369Y0020537D01*
X0020482Y0020426D01*
X0020592Y0020312D01*
X0020699Y0020195D01*
X0020803Y0020076D01*
X0020904Y0019954D01*
X0021001Y0019829D01*
X0021096Y0019702D01*
X0021187Y0019573D01*
X0021276Y0019442D01*
X0021360Y0019308D01*
X0021442Y0019172D01*
X0021520Y0019035D01*
X0021594Y0018895D01*
X0021665Y0018753D01*
X0021733Y0018610D01*
X0021797Y0018465D01*
X0021857Y0018319D01*
X0021913Y0018171D01*
X0021966Y0018022D01*
X0022015Y0017871D01*
X0022060Y0017719D01*
X0022101Y0017566D01*
X0022139Y0017413D01*
X0022172Y0017258D01*
X0022202Y0017102D01*
X0022228Y0016946D01*
X0022249Y0016789D01*
X0022267Y0016632D01*
X0022281Y0016474D01*
X0022291Y0016316D01*
X0022297Y0016158D01*
X0022299Y0016000D01*
X0022297Y0015842D01*
X0022291Y0015684D01*
X0022281Y0015526D01*
X0022267Y0015368D01*
X0022249Y0015211D01*
X0022228Y0015054D01*
X0022202Y0014898D01*
X0022172Y0014742D01*
X0022139Y0014587D01*
X0022101Y0014434D01*
X0022060Y0014281D01*
X0022015Y0014129D01*
X0021966Y0013978D01*
X0021913Y0013829D01*
X0021857Y0013681D01*
X0021797Y0013535D01*
X0021733Y0013390D01*
X0021665Y0013247D01*
X0021594Y0013105D01*
X0021520Y0012965D01*
X0021442Y0012828D01*
X0021360Y0012692D01*
X0021276Y0012558D01*
X0021187Y0012427D01*
X0021096Y0012298D01*
X0021001Y0012171D01*
X0020904Y0012046D01*
X0020803Y0011924D01*
X0020699Y0011805D01*
X0020592Y0011688D01*
X0020482Y0011574D01*
X0020369Y0011463D01*
X0020254Y0011354D01*
X0020136Y0011249D01*
X0020015Y0011147D01*
X0019892Y0011047D01*
X0019766Y0010951D01*
X0019638Y0010858D01*
X0019508Y0010768D01*
X0019375Y0010682D01*
X0019240Y0010598D01*
X0019104Y0010519D01*
X0018965Y0010442D01*
X0018824Y0010370D01*
X0018682Y0010300D01*
X0018538Y0010235D01*
X0018392Y0010173D01*
X0018245Y0010115D01*
X0018096Y0010060D01*
X0017946Y0010009D01*
X0017795Y0009962D01*
X0017643Y0009919D01*
X0017490Y0009880D01*
X0017335Y0009844D01*
X0017180Y0009813D01*
X0017024Y0009785D01*
X0016868Y0009761D01*
X0016711Y0009741D01*
X0016553Y0009725D01*
X0016396Y0009713D01*
X0016237Y0009705D01*
X0016079Y0009701D01*
X0015921Y0009701D01*
X0015763Y0009705D01*
X0015604Y0009713D01*
X0015447Y0009725D01*
X0015289Y0009741D01*
X0015132Y0009761D01*
X0014976Y0009785D01*
X0014820Y0009813D01*
X0014665Y0009844D01*
X0014510Y0009880D01*
X0014357Y0009919D01*
X0014205Y0009962D01*
X0014054Y0010009D01*
X0013904Y0010060D01*
X0013755Y0010115D01*
X0013608Y0010173D01*
X0013462Y0010235D01*
X0013318Y0010300D01*
X0013176Y0010370D01*
X0013035Y0010442D01*
X0012896Y0010519D01*
X0012760Y0010598D01*
X0012625Y0010682D01*
X0012492Y0010768D01*
X0012362Y0010858D01*
X0012234Y0010951D01*
X0012108Y0011047D01*
X0011985Y0011147D01*
X0011864Y0011249D01*
X0011746Y0011354D01*
X0011631Y0011463D01*
X0011518Y0011574D01*
X0011408Y0011688D01*
X0011301Y0011805D01*
X0011197Y0011924D01*
X0011096Y0012046D01*
X0010999Y0012171D01*
X0010904Y0012298D01*
X0010813Y0012427D01*
X0010724Y0012558D01*
X0010640Y0012692D01*
X0010558Y0012828D01*
X0010480Y0012965D01*
X0010406Y0013105D01*
X0010335Y0013247D01*
X0010267Y0013390D01*
X0010203Y0013535D01*
X0010143Y0013681D01*
X0010087Y0013829D01*
X0010034Y0013978D01*
X0009985Y0014129D01*
X0009940Y0014281D01*
X0009899Y0014434D01*
X0009861Y0014587D01*
X0009828Y0014742D01*
X0009798Y0014898D01*
X0009772Y0015054D01*
X0009751Y0015211D01*
X0009733Y0015368D01*
X0009719Y0015526D01*
X0009709Y0015684D01*
X0009703Y0015842D01*
X0009701Y0016000D01*
X0009701Y0246000D02*
X0009703Y0246158D01*
X0009709Y0246316D01*
X0009719Y0246474D01*
X0009733Y0246632D01*
X0009751Y0246789D01*
X0009772Y0246946D01*
X0009798Y0247102D01*
X0009828Y0247258D01*
X0009861Y0247413D01*
X0009899Y0247566D01*
X0009940Y0247719D01*
X0009985Y0247871D01*
X0010034Y0248022D01*
X0010087Y0248171D01*
X0010143Y0248319D01*
X0010203Y0248465D01*
X0010267Y0248610D01*
X0010335Y0248753D01*
X0010406Y0248895D01*
X0010480Y0249035D01*
X0010558Y0249172D01*
X0010640Y0249308D01*
X0010724Y0249442D01*
X0010813Y0249573D01*
X0010904Y0249702D01*
X0010999Y0249829D01*
X0011096Y0249954D01*
X0011197Y0250076D01*
X0011301Y0250195D01*
X0011408Y0250312D01*
X0011518Y0250426D01*
X0011631Y0250537D01*
X0011746Y0250646D01*
X0011864Y0250751D01*
X0011985Y0250853D01*
X0012108Y0250953D01*
X0012234Y0251049D01*
X0012362Y0251142D01*
X0012492Y0251232D01*
X0012625Y0251318D01*
X0012760Y0251402D01*
X0012896Y0251481D01*
X0013035Y0251558D01*
X0013176Y0251630D01*
X0013318Y0251700D01*
X0013462Y0251765D01*
X0013608Y0251827D01*
X0013755Y0251885D01*
X0013904Y0251940D01*
X0014054Y0251991D01*
X0014205Y0252038D01*
X0014357Y0252081D01*
X0014510Y0252120D01*
X0014665Y0252156D01*
X0014820Y0252187D01*
X0014976Y0252215D01*
X0015132Y0252239D01*
X0015289Y0252259D01*
X0015447Y0252275D01*
X0015604Y0252287D01*
X0015763Y0252295D01*
X0015921Y0252299D01*
X0016079Y0252299D01*
X0016237Y0252295D01*
X0016396Y0252287D01*
X0016553Y0252275D01*
X0016711Y0252259D01*
X0016868Y0252239D01*
X0017024Y0252215D01*
X0017180Y0252187D01*
X0017335Y0252156D01*
X0017490Y0252120D01*
X0017643Y0252081D01*
X0017795Y0252038D01*
X0017946Y0251991D01*
X0018096Y0251940D01*
X0018245Y0251885D01*
X0018392Y0251827D01*
X0018538Y0251765D01*
X0018682Y0251700D01*
X0018824Y0251630D01*
X0018965Y0251558D01*
X0019104Y0251481D01*
X0019240Y0251402D01*
X0019375Y0251318D01*
X0019508Y0251232D01*
X0019638Y0251142D01*
X0019766Y0251049D01*
X0019892Y0250953D01*
X0020015Y0250853D01*
X0020136Y0250751D01*
X0020254Y0250646D01*
X0020369Y0250537D01*
X0020482Y0250426D01*
X0020592Y0250312D01*
X0020699Y0250195D01*
X0020803Y0250076D01*
X0020904Y0249954D01*
X0021001Y0249829D01*
X0021096Y0249702D01*
X0021187Y0249573D01*
X0021276Y0249442D01*
X0021360Y0249308D01*
X0021442Y0249172D01*
X0021520Y0249035D01*
X0021594Y0248895D01*
X0021665Y0248753D01*
X0021733Y0248610D01*
X0021797Y0248465D01*
X0021857Y0248319D01*
X0021913Y0248171D01*
X0021966Y0248022D01*
X0022015Y0247871D01*
X0022060Y0247719D01*
X0022101Y0247566D01*
X0022139Y0247413D01*
X0022172Y0247258D01*
X0022202Y0247102D01*
X0022228Y0246946D01*
X0022249Y0246789D01*
X0022267Y0246632D01*
X0022281Y0246474D01*
X0022291Y0246316D01*
X0022297Y0246158D01*
X0022299Y0246000D01*
X0022297Y0245842D01*
X0022291Y0245684D01*
X0022281Y0245526D01*
X0022267Y0245368D01*
X0022249Y0245211D01*
X0022228Y0245054D01*
X0022202Y0244898D01*
X0022172Y0244742D01*
X0022139Y0244587D01*
X0022101Y0244434D01*
X0022060Y0244281D01*
X0022015Y0244129D01*
X0021966Y0243978D01*
X0021913Y0243829D01*
X0021857Y0243681D01*
X0021797Y0243535D01*
X0021733Y0243390D01*
X0021665Y0243247D01*
X0021594Y0243105D01*
X0021520Y0242965D01*
X0021442Y0242828D01*
X0021360Y0242692D01*
X0021276Y0242558D01*
X0021187Y0242427D01*
X0021096Y0242298D01*
X0021001Y0242171D01*
X0020904Y0242046D01*
X0020803Y0241924D01*
X0020699Y0241805D01*
X0020592Y0241688D01*
X0020482Y0241574D01*
X0020369Y0241463D01*
X0020254Y0241354D01*
X0020136Y0241249D01*
X0020015Y0241147D01*
X0019892Y0241047D01*
X0019766Y0240951D01*
X0019638Y0240858D01*
X0019508Y0240768D01*
X0019375Y0240682D01*
X0019240Y0240598D01*
X0019104Y0240519D01*
X0018965Y0240442D01*
X0018824Y0240370D01*
X0018682Y0240300D01*
X0018538Y0240235D01*
X0018392Y0240173D01*
X0018245Y0240115D01*
X0018096Y0240060D01*
X0017946Y0240009D01*
X0017795Y0239962D01*
X0017643Y0239919D01*
X0017490Y0239880D01*
X0017335Y0239844D01*
X0017180Y0239813D01*
X0017024Y0239785D01*
X0016868Y0239761D01*
X0016711Y0239741D01*
X0016553Y0239725D01*
X0016396Y0239713D01*
X0016237Y0239705D01*
X0016079Y0239701D01*
X0015921Y0239701D01*
X0015763Y0239705D01*
X0015604Y0239713D01*
X0015447Y0239725D01*
X0015289Y0239741D01*
X0015132Y0239761D01*
X0014976Y0239785D01*
X0014820Y0239813D01*
X0014665Y0239844D01*
X0014510Y0239880D01*
X0014357Y0239919D01*
X0014205Y0239962D01*
X0014054Y0240009D01*
X0013904Y0240060D01*
X0013755Y0240115D01*
X0013608Y0240173D01*
X0013462Y0240235D01*
X0013318Y0240300D01*
X0013176Y0240370D01*
X0013035Y0240442D01*
X0012896Y0240519D01*
X0012760Y0240598D01*
X0012625Y0240682D01*
X0012492Y0240768D01*
X0012362Y0240858D01*
X0012234Y0240951D01*
X0012108Y0241047D01*
X0011985Y0241147D01*
X0011864Y0241249D01*
X0011746Y0241354D01*
X0011631Y0241463D01*
X0011518Y0241574D01*
X0011408Y0241688D01*
X0011301Y0241805D01*
X0011197Y0241924D01*
X0011096Y0242046D01*
X0010999Y0242171D01*
X0010904Y0242298D01*
X0010813Y0242427D01*
X0010724Y0242558D01*
X0010640Y0242692D01*
X0010558Y0242828D01*
X0010480Y0242965D01*
X0010406Y0243105D01*
X0010335Y0243247D01*
X0010267Y0243390D01*
X0010203Y0243535D01*
X0010143Y0243681D01*
X0010087Y0243829D01*
X0010034Y0243978D01*
X0009985Y0244129D01*
X0009940Y0244281D01*
X0009899Y0244434D01*
X0009861Y0244587D01*
X0009828Y0244742D01*
X0009798Y0244898D01*
X0009772Y0245054D01*
X0009751Y0245211D01*
X0009733Y0245368D01*
X0009719Y0245526D01*
X0009709Y0245684D01*
X0009703Y0245842D01*
X0009701Y0246000D01*
X0204701Y0246000D02*
X0204703Y0246158D01*
X0204709Y0246316D01*
X0204719Y0246474D01*
X0204733Y0246632D01*
X0204751Y0246789D01*
X0204772Y0246946D01*
X0204798Y0247102D01*
X0204828Y0247258D01*
X0204861Y0247413D01*
X0204899Y0247566D01*
X0204940Y0247719D01*
X0204985Y0247871D01*
X0205034Y0248022D01*
X0205087Y0248171D01*
X0205143Y0248319D01*
X0205203Y0248465D01*
X0205267Y0248610D01*
X0205335Y0248753D01*
X0205406Y0248895D01*
X0205480Y0249035D01*
X0205558Y0249172D01*
X0205640Y0249308D01*
X0205724Y0249442D01*
X0205813Y0249573D01*
X0205904Y0249702D01*
X0205999Y0249829D01*
X0206096Y0249954D01*
X0206197Y0250076D01*
X0206301Y0250195D01*
X0206408Y0250312D01*
X0206518Y0250426D01*
X0206631Y0250537D01*
X0206746Y0250646D01*
X0206864Y0250751D01*
X0206985Y0250853D01*
X0207108Y0250953D01*
X0207234Y0251049D01*
X0207362Y0251142D01*
X0207492Y0251232D01*
X0207625Y0251318D01*
X0207760Y0251402D01*
X0207896Y0251481D01*
X0208035Y0251558D01*
X0208176Y0251630D01*
X0208318Y0251700D01*
X0208462Y0251765D01*
X0208608Y0251827D01*
X0208755Y0251885D01*
X0208904Y0251940D01*
X0209054Y0251991D01*
X0209205Y0252038D01*
X0209357Y0252081D01*
X0209510Y0252120D01*
X0209665Y0252156D01*
X0209820Y0252187D01*
X0209976Y0252215D01*
X0210132Y0252239D01*
X0210289Y0252259D01*
X0210447Y0252275D01*
X0210604Y0252287D01*
X0210763Y0252295D01*
X0210921Y0252299D01*
X0211079Y0252299D01*
X0211237Y0252295D01*
X0211396Y0252287D01*
X0211553Y0252275D01*
X0211711Y0252259D01*
X0211868Y0252239D01*
X0212024Y0252215D01*
X0212180Y0252187D01*
X0212335Y0252156D01*
X0212490Y0252120D01*
X0212643Y0252081D01*
X0212795Y0252038D01*
X0212946Y0251991D01*
X0213096Y0251940D01*
X0213245Y0251885D01*
X0213392Y0251827D01*
X0213538Y0251765D01*
X0213682Y0251700D01*
X0213824Y0251630D01*
X0213965Y0251558D01*
X0214104Y0251481D01*
X0214240Y0251402D01*
X0214375Y0251318D01*
X0214508Y0251232D01*
X0214638Y0251142D01*
X0214766Y0251049D01*
X0214892Y0250953D01*
X0215015Y0250853D01*
X0215136Y0250751D01*
X0215254Y0250646D01*
X0215369Y0250537D01*
X0215482Y0250426D01*
X0215592Y0250312D01*
X0215699Y0250195D01*
X0215803Y0250076D01*
X0215904Y0249954D01*
X0216001Y0249829D01*
X0216096Y0249702D01*
X0216187Y0249573D01*
X0216276Y0249442D01*
X0216360Y0249308D01*
X0216442Y0249172D01*
X0216520Y0249035D01*
X0216594Y0248895D01*
X0216665Y0248753D01*
X0216733Y0248610D01*
X0216797Y0248465D01*
X0216857Y0248319D01*
X0216913Y0248171D01*
X0216966Y0248022D01*
X0217015Y0247871D01*
X0217060Y0247719D01*
X0217101Y0247566D01*
X0217139Y0247413D01*
X0217172Y0247258D01*
X0217202Y0247102D01*
X0217228Y0246946D01*
X0217249Y0246789D01*
X0217267Y0246632D01*
X0217281Y0246474D01*
X0217291Y0246316D01*
X0217297Y0246158D01*
X0217299Y0246000D01*
X0217297Y0245842D01*
X0217291Y0245684D01*
X0217281Y0245526D01*
X0217267Y0245368D01*
X0217249Y0245211D01*
X0217228Y0245054D01*
X0217202Y0244898D01*
X0217172Y0244742D01*
X0217139Y0244587D01*
X0217101Y0244434D01*
X0217060Y0244281D01*
X0217015Y0244129D01*
X0216966Y0243978D01*
X0216913Y0243829D01*
X0216857Y0243681D01*
X0216797Y0243535D01*
X0216733Y0243390D01*
X0216665Y0243247D01*
X0216594Y0243105D01*
X0216520Y0242965D01*
X0216442Y0242828D01*
X0216360Y0242692D01*
X0216276Y0242558D01*
X0216187Y0242427D01*
X0216096Y0242298D01*
X0216001Y0242171D01*
X0215904Y0242046D01*
X0215803Y0241924D01*
X0215699Y0241805D01*
X0215592Y0241688D01*
X0215482Y0241574D01*
X0215369Y0241463D01*
X0215254Y0241354D01*
X0215136Y0241249D01*
X0215015Y0241147D01*
X0214892Y0241047D01*
X0214766Y0240951D01*
X0214638Y0240858D01*
X0214508Y0240768D01*
X0214375Y0240682D01*
X0214240Y0240598D01*
X0214104Y0240519D01*
X0213965Y0240442D01*
X0213824Y0240370D01*
X0213682Y0240300D01*
X0213538Y0240235D01*
X0213392Y0240173D01*
X0213245Y0240115D01*
X0213096Y0240060D01*
X0212946Y0240009D01*
X0212795Y0239962D01*
X0212643Y0239919D01*
X0212490Y0239880D01*
X0212335Y0239844D01*
X0212180Y0239813D01*
X0212024Y0239785D01*
X0211868Y0239761D01*
X0211711Y0239741D01*
X0211553Y0239725D01*
X0211396Y0239713D01*
X0211237Y0239705D01*
X0211079Y0239701D01*
X0210921Y0239701D01*
X0210763Y0239705D01*
X0210604Y0239713D01*
X0210447Y0239725D01*
X0210289Y0239741D01*
X0210132Y0239761D01*
X0209976Y0239785D01*
X0209820Y0239813D01*
X0209665Y0239844D01*
X0209510Y0239880D01*
X0209357Y0239919D01*
X0209205Y0239962D01*
X0209054Y0240009D01*
X0208904Y0240060D01*
X0208755Y0240115D01*
X0208608Y0240173D01*
X0208462Y0240235D01*
X0208318Y0240300D01*
X0208176Y0240370D01*
X0208035Y0240442D01*
X0207896Y0240519D01*
X0207760Y0240598D01*
X0207625Y0240682D01*
X0207492Y0240768D01*
X0207362Y0240858D01*
X0207234Y0240951D01*
X0207108Y0241047D01*
X0206985Y0241147D01*
X0206864Y0241249D01*
X0206746Y0241354D01*
X0206631Y0241463D01*
X0206518Y0241574D01*
X0206408Y0241688D01*
X0206301Y0241805D01*
X0206197Y0241924D01*
X0206096Y0242046D01*
X0205999Y0242171D01*
X0205904Y0242298D01*
X0205813Y0242427D01*
X0205724Y0242558D01*
X0205640Y0242692D01*
X0205558Y0242828D01*
X0205480Y0242965D01*
X0205406Y0243105D01*
X0205335Y0243247D01*
X0205267Y0243390D01*
X0205203Y0243535D01*
X0205143Y0243681D01*
X0205087Y0243829D01*
X0205034Y0243978D01*
X0204985Y0244129D01*
X0204940Y0244281D01*
X0204899Y0244434D01*
X0204861Y0244587D01*
X0204828Y0244742D01*
X0204798Y0244898D01*
X0204772Y0245054D01*
X0204751Y0245211D01*
X0204733Y0245368D01*
X0204719Y0245526D01*
X0204709Y0245684D01*
X0204703Y0245842D01*
X0204701Y0246000D01*
X0204701Y0016000D02*
X0204703Y0016158D01*
X0204709Y0016316D01*
X0204719Y0016474D01*
X0204733Y0016632D01*
X0204751Y0016789D01*
X0204772Y0016946D01*
X0204798Y0017102D01*
X0204828Y0017258D01*
X0204861Y0017413D01*
X0204899Y0017566D01*
X0204940Y0017719D01*
X0204985Y0017871D01*
X0205034Y0018022D01*
X0205087Y0018171D01*
X0205143Y0018319D01*
X0205203Y0018465D01*
X0205267Y0018610D01*
X0205335Y0018753D01*
X0205406Y0018895D01*
X0205480Y0019035D01*
X0205558Y0019172D01*
X0205640Y0019308D01*
X0205724Y0019442D01*
X0205813Y0019573D01*
X0205904Y0019702D01*
X0205999Y0019829D01*
X0206096Y0019954D01*
X0206197Y0020076D01*
X0206301Y0020195D01*
X0206408Y0020312D01*
X0206518Y0020426D01*
X0206631Y0020537D01*
X0206746Y0020646D01*
X0206864Y0020751D01*
X0206985Y0020853D01*
X0207108Y0020953D01*
X0207234Y0021049D01*
X0207362Y0021142D01*
X0207492Y0021232D01*
X0207625Y0021318D01*
X0207760Y0021402D01*
X0207896Y0021481D01*
X0208035Y0021558D01*
X0208176Y0021630D01*
X0208318Y0021700D01*
X0208462Y0021765D01*
X0208608Y0021827D01*
X0208755Y0021885D01*
X0208904Y0021940D01*
X0209054Y0021991D01*
X0209205Y0022038D01*
X0209357Y0022081D01*
X0209510Y0022120D01*
X0209665Y0022156D01*
X0209820Y0022187D01*
X0209976Y0022215D01*
X0210132Y0022239D01*
X0210289Y0022259D01*
X0210447Y0022275D01*
X0210604Y0022287D01*
X0210763Y0022295D01*
X0210921Y0022299D01*
X0211079Y0022299D01*
X0211237Y0022295D01*
X0211396Y0022287D01*
X0211553Y0022275D01*
X0211711Y0022259D01*
X0211868Y0022239D01*
X0212024Y0022215D01*
X0212180Y0022187D01*
X0212335Y0022156D01*
X0212490Y0022120D01*
X0212643Y0022081D01*
X0212795Y0022038D01*
X0212946Y0021991D01*
X0213096Y0021940D01*
X0213245Y0021885D01*
X0213392Y0021827D01*
X0213538Y0021765D01*
X0213682Y0021700D01*
X0213824Y0021630D01*
X0213965Y0021558D01*
X0214104Y0021481D01*
X0214240Y0021402D01*
X0214375Y0021318D01*
X0214508Y0021232D01*
X0214638Y0021142D01*
X0214766Y0021049D01*
X0214892Y0020953D01*
X0215015Y0020853D01*
X0215136Y0020751D01*
X0215254Y0020646D01*
X0215369Y0020537D01*
X0215482Y0020426D01*
X0215592Y0020312D01*
X0215699Y0020195D01*
X0215803Y0020076D01*
X0215904Y0019954D01*
X0216001Y0019829D01*
X0216096Y0019702D01*
X0216187Y0019573D01*
X0216276Y0019442D01*
X0216360Y0019308D01*
X0216442Y0019172D01*
X0216520Y0019035D01*
X0216594Y0018895D01*
X0216665Y0018753D01*
X0216733Y0018610D01*
X0216797Y0018465D01*
X0216857Y0018319D01*
X0216913Y0018171D01*
X0216966Y0018022D01*
X0217015Y0017871D01*
X0217060Y0017719D01*
X0217101Y0017566D01*
X0217139Y0017413D01*
X0217172Y0017258D01*
X0217202Y0017102D01*
X0217228Y0016946D01*
X0217249Y0016789D01*
X0217267Y0016632D01*
X0217281Y0016474D01*
X0217291Y0016316D01*
X0217297Y0016158D01*
X0217299Y0016000D01*
X0217297Y0015842D01*
X0217291Y0015684D01*
X0217281Y0015526D01*
X0217267Y0015368D01*
X0217249Y0015211D01*
X0217228Y0015054D01*
X0217202Y0014898D01*
X0217172Y0014742D01*
X0217139Y0014587D01*
X0217101Y0014434D01*
X0217060Y0014281D01*
X0217015Y0014129D01*
X0216966Y0013978D01*
X0216913Y0013829D01*
X0216857Y0013681D01*
X0216797Y0013535D01*
X0216733Y0013390D01*
X0216665Y0013247D01*
X0216594Y0013105D01*
X0216520Y0012965D01*
X0216442Y0012828D01*
X0216360Y0012692D01*
X0216276Y0012558D01*
X0216187Y0012427D01*
X0216096Y0012298D01*
X0216001Y0012171D01*
X0215904Y0012046D01*
X0215803Y0011924D01*
X0215699Y0011805D01*
X0215592Y0011688D01*
X0215482Y0011574D01*
X0215369Y0011463D01*
X0215254Y0011354D01*
X0215136Y0011249D01*
X0215015Y0011147D01*
X0214892Y0011047D01*
X0214766Y0010951D01*
X0214638Y0010858D01*
X0214508Y0010768D01*
X0214375Y0010682D01*
X0214240Y0010598D01*
X0214104Y0010519D01*
X0213965Y0010442D01*
X0213824Y0010370D01*
X0213682Y0010300D01*
X0213538Y0010235D01*
X0213392Y0010173D01*
X0213245Y0010115D01*
X0213096Y0010060D01*
X0212946Y0010009D01*
X0212795Y0009962D01*
X0212643Y0009919D01*
X0212490Y0009880D01*
X0212335Y0009844D01*
X0212180Y0009813D01*
X0212024Y0009785D01*
X0211868Y0009761D01*
X0211711Y0009741D01*
X0211553Y0009725D01*
X0211396Y0009713D01*
X0211237Y0009705D01*
X0211079Y0009701D01*
X0210921Y0009701D01*
X0210763Y0009705D01*
X0210604Y0009713D01*
X0210447Y0009725D01*
X0210289Y0009741D01*
X0210132Y0009761D01*
X0209976Y0009785D01*
X0209820Y0009813D01*
X0209665Y0009844D01*
X0209510Y0009880D01*
X0209357Y0009919D01*
X0209205Y0009962D01*
X0209054Y0010009D01*
X0208904Y0010060D01*
X0208755Y0010115D01*
X0208608Y0010173D01*
X0208462Y0010235D01*
X0208318Y0010300D01*
X0208176Y0010370D01*
X0208035Y0010442D01*
X0207896Y0010519D01*
X0207760Y0010598D01*
X0207625Y0010682D01*
X0207492Y0010768D01*
X0207362Y0010858D01*
X0207234Y0010951D01*
X0207108Y0011047D01*
X0206985Y0011147D01*
X0206864Y0011249D01*
X0206746Y0011354D01*
X0206631Y0011463D01*
X0206518Y0011574D01*
X0206408Y0011688D01*
X0206301Y0011805D01*
X0206197Y0011924D01*
X0206096Y0012046D01*
X0205999Y0012171D01*
X0205904Y0012298D01*
X0205813Y0012427D01*
X0205724Y0012558D01*
X0205640Y0012692D01*
X0205558Y0012828D01*
X0205480Y0012965D01*
X0205406Y0013105D01*
X0205335Y0013247D01*
X0205267Y0013390D01*
X0205203Y0013535D01*
X0205143Y0013681D01*
X0205087Y0013829D01*
X0205034Y0013978D01*
X0204985Y0014129D01*
X0204940Y0014281D01*
X0204899Y0014434D01*
X0204861Y0014587D01*
X0204828Y0014742D01*
X0204798Y0014898D01*
X0204772Y0015054D01*
X0204751Y0015211D01*
X0204733Y0015368D01*
X0204719Y0015526D01*
X0204709Y0015684D01*
X0204703Y0015842D01*
X0204701Y0016000D01*
D11*
X0211000Y0016000D03*
X0211000Y0246000D03*
X0016000Y0246000D03*
X0016000Y0016000D03*
D12*
X0024386Y0036000D03*
X0034386Y0036000D03*
X0056433Y0036000D03*
X0066433Y0036000D03*
X0079819Y0061000D03*
X0093874Y0061000D03*
X0108874Y0061000D03*
X0123874Y0061000D03*
X0126433Y0036000D03*
X0116433Y0036000D03*
X0096433Y0036000D03*
X0086433Y0036000D03*
X0079819Y0091000D03*
X0093874Y0091000D03*
X0108874Y0091000D03*
X0112969Y0104189D03*
X0123874Y0091000D03*
X0096000Y0131000D03*
X0112969Y0134189D03*
X0096000Y0151000D03*
X0076000Y0151000D03*
X0076000Y0131000D03*
X0056000Y0141000D03*
X0026000Y0141000D03*
X0181000Y0186000D03*
X0181000Y0201000D03*
X0181000Y0216000D03*
X0211000Y0216000D03*
X0211000Y0201000D03*
X0211000Y0186000D03*
D13*
X0211000Y0039000D02*
X0211000Y0033000D01*
X0201000Y0033000D02*
X0201000Y0039000D01*
X0191000Y0039000D02*
X0191000Y0033000D01*
X0181000Y0033000D02*
X0181000Y0039000D01*
X0171000Y0039000D02*
X0171000Y0033000D01*
X0161000Y0033000D02*
X0161000Y0039000D01*
X0056800Y0167100D02*
X0050800Y0167100D01*
X0050800Y0184900D02*
X0056800Y0184900D01*
X0056800Y0207100D02*
X0050800Y0207100D01*
X0050800Y0224900D02*
X0056800Y0224900D01*
X0031200Y0224900D02*
X0025200Y0224900D01*
X0025200Y0207100D02*
X0031200Y0207100D01*
X0031200Y0184900D02*
X0025200Y0184900D01*
X0025200Y0167100D02*
X0031200Y0167100D01*
X0034000Y0116000D02*
X0028000Y0116000D01*
X0028000Y0106000D02*
X0034000Y0106000D01*
X0034000Y0096000D02*
X0028000Y0096000D01*
X0028000Y0086000D02*
X0034000Y0086000D01*
D14*
X0136000Y0113400D02*
X0136000Y0118600D01*
X0146000Y0118600D02*
X0146000Y0113400D01*
X0156000Y0113400D02*
X0156000Y0118600D01*
X0166000Y0118600D02*
X0166000Y0113400D01*
X0176000Y0113400D02*
X0176000Y0118600D01*
X0186000Y0118600D02*
X0186000Y0113400D01*
X0196000Y0113400D02*
X0196000Y0118600D01*
X0206000Y0118600D02*
X0206000Y0113400D01*
X0206000Y0143400D02*
X0206000Y0148600D01*
X0196000Y0148600D02*
X0196000Y0143400D01*
X0186000Y0143400D02*
X0186000Y0148600D01*
X0176000Y0148600D02*
X0176000Y0143400D01*
X0166000Y0143400D02*
X0166000Y0148600D01*
X0156000Y0148600D02*
X0156000Y0143400D01*
X0146000Y0143400D02*
X0146000Y0148600D01*
X0136000Y0148600D02*
X0136000Y0143400D01*
D15*
X0061000Y0111000D03*
X0061000Y0091000D03*
M02*
