G75*
%MOIN*%
%OFA0B0*%
%FSLAX25Y25*%
%IPPOS*%
%LPD*%
%AMOC8*
5,1,8,0,0,1.08239X$1,22.5*
%
%ADD10C,0.00000*%
%ADD11OC8,0.05200*%
%ADD12C,0.06000*%
%ADD13R,0.05846X0.03543*%
%ADD14C,0.05200*%
%ADD15OC8,0.08500*%
%ADD16C,0.05000*%
%ADD17C,0.01200*%
%ADD18C,0.02578*%
%ADD19C,0.02400*%
%ADD20C,0.02000*%
D10*
X0001000Y0001000D02*
X0001000Y0260843D01*
X0225409Y0260843D01*
X0225409Y0001000D01*
X0001000Y0001000D01*
X0009701Y0016000D02*
X0009703Y0016158D01*
X0009709Y0016316D01*
X0009719Y0016474D01*
X0009733Y0016632D01*
X0009751Y0016789D01*
X0009772Y0016946D01*
X0009798Y0017102D01*
X0009828Y0017258D01*
X0009861Y0017413D01*
X0009899Y0017566D01*
X0009940Y0017719D01*
X0009985Y0017871D01*
X0010034Y0018022D01*
X0010087Y0018171D01*
X0010143Y0018319D01*
X0010203Y0018465D01*
X0010267Y0018610D01*
X0010335Y0018753D01*
X0010406Y0018895D01*
X0010480Y0019035D01*
X0010558Y0019172D01*
X0010640Y0019308D01*
X0010724Y0019442D01*
X0010813Y0019573D01*
X0010904Y0019702D01*
X0010999Y0019829D01*
X0011096Y0019954D01*
X0011197Y0020076D01*
X0011301Y0020195D01*
X0011408Y0020312D01*
X0011518Y0020426D01*
X0011631Y0020537D01*
X0011746Y0020646D01*
X0011864Y0020751D01*
X0011985Y0020853D01*
X0012108Y0020953D01*
X0012234Y0021049D01*
X0012362Y0021142D01*
X0012492Y0021232D01*
X0012625Y0021318D01*
X0012760Y0021402D01*
X0012896Y0021481D01*
X0013035Y0021558D01*
X0013176Y0021630D01*
X0013318Y0021700D01*
X0013462Y0021765D01*
X0013608Y0021827D01*
X0013755Y0021885D01*
X0013904Y0021940D01*
X0014054Y0021991D01*
X0014205Y0022038D01*
X0014357Y0022081D01*
X0014510Y0022120D01*
X0014665Y0022156D01*
X0014820Y0022187D01*
X0014976Y0022215D01*
X0015132Y0022239D01*
X0015289Y0022259D01*
X0015447Y0022275D01*
X0015604Y0022287D01*
X0015763Y0022295D01*
X0015921Y0022299D01*
X0016079Y0022299D01*
X0016237Y0022295D01*
X0016396Y0022287D01*
X0016553Y0022275D01*
X0016711Y0022259D01*
X0016868Y0022239D01*
X0017024Y0022215D01*
X0017180Y0022187D01*
X0017335Y0022156D01*
X0017490Y0022120D01*
X0017643Y0022081D01*
X0017795Y0022038D01*
X0017946Y0021991D01*
X0018096Y0021940D01*
X0018245Y0021885D01*
X0018392Y0021827D01*
X0018538Y0021765D01*
X0018682Y0021700D01*
X0018824Y0021630D01*
X0018965Y0021558D01*
X0019104Y0021481D01*
X0019240Y0021402D01*
X0019375Y0021318D01*
X0019508Y0021232D01*
X0019638Y0021142D01*
X0019766Y0021049D01*
X0019892Y0020953D01*
X0020015Y0020853D01*
X0020136Y0020751D01*
X0020254Y0020646D01*
X0020369Y0020537D01*
X0020482Y0020426D01*
X0020592Y0020312D01*
X0020699Y0020195D01*
X0020803Y0020076D01*
X0020904Y0019954D01*
X0021001Y0019829D01*
X0021096Y0019702D01*
X0021187Y0019573D01*
X0021276Y0019442D01*
X0021360Y0019308D01*
X0021442Y0019172D01*
X0021520Y0019035D01*
X0021594Y0018895D01*
X0021665Y0018753D01*
X0021733Y0018610D01*
X0021797Y0018465D01*
X0021857Y0018319D01*
X0021913Y0018171D01*
X0021966Y0018022D01*
X0022015Y0017871D01*
X0022060Y0017719D01*
X0022101Y0017566D01*
X0022139Y0017413D01*
X0022172Y0017258D01*
X0022202Y0017102D01*
X0022228Y0016946D01*
X0022249Y0016789D01*
X0022267Y0016632D01*
X0022281Y0016474D01*
X0022291Y0016316D01*
X0022297Y0016158D01*
X0022299Y0016000D01*
X0022297Y0015842D01*
X0022291Y0015684D01*
X0022281Y0015526D01*
X0022267Y0015368D01*
X0022249Y0015211D01*
X0022228Y0015054D01*
X0022202Y0014898D01*
X0022172Y0014742D01*
X0022139Y0014587D01*
X0022101Y0014434D01*
X0022060Y0014281D01*
X0022015Y0014129D01*
X0021966Y0013978D01*
X0021913Y0013829D01*
X0021857Y0013681D01*
X0021797Y0013535D01*
X0021733Y0013390D01*
X0021665Y0013247D01*
X0021594Y0013105D01*
X0021520Y0012965D01*
X0021442Y0012828D01*
X0021360Y0012692D01*
X0021276Y0012558D01*
X0021187Y0012427D01*
X0021096Y0012298D01*
X0021001Y0012171D01*
X0020904Y0012046D01*
X0020803Y0011924D01*
X0020699Y0011805D01*
X0020592Y0011688D01*
X0020482Y0011574D01*
X0020369Y0011463D01*
X0020254Y0011354D01*
X0020136Y0011249D01*
X0020015Y0011147D01*
X0019892Y0011047D01*
X0019766Y0010951D01*
X0019638Y0010858D01*
X0019508Y0010768D01*
X0019375Y0010682D01*
X0019240Y0010598D01*
X0019104Y0010519D01*
X0018965Y0010442D01*
X0018824Y0010370D01*
X0018682Y0010300D01*
X0018538Y0010235D01*
X0018392Y0010173D01*
X0018245Y0010115D01*
X0018096Y0010060D01*
X0017946Y0010009D01*
X0017795Y0009962D01*
X0017643Y0009919D01*
X0017490Y0009880D01*
X0017335Y0009844D01*
X0017180Y0009813D01*
X0017024Y0009785D01*
X0016868Y0009761D01*
X0016711Y0009741D01*
X0016553Y0009725D01*
X0016396Y0009713D01*
X0016237Y0009705D01*
X0016079Y0009701D01*
X0015921Y0009701D01*
X0015763Y0009705D01*
X0015604Y0009713D01*
X0015447Y0009725D01*
X0015289Y0009741D01*
X0015132Y0009761D01*
X0014976Y0009785D01*
X0014820Y0009813D01*
X0014665Y0009844D01*
X0014510Y0009880D01*
X0014357Y0009919D01*
X0014205Y0009962D01*
X0014054Y0010009D01*
X0013904Y0010060D01*
X0013755Y0010115D01*
X0013608Y0010173D01*
X0013462Y0010235D01*
X0013318Y0010300D01*
X0013176Y0010370D01*
X0013035Y0010442D01*
X0012896Y0010519D01*
X0012760Y0010598D01*
X0012625Y0010682D01*
X0012492Y0010768D01*
X0012362Y0010858D01*
X0012234Y0010951D01*
X0012108Y0011047D01*
X0011985Y0011147D01*
X0011864Y0011249D01*
X0011746Y0011354D01*
X0011631Y0011463D01*
X0011518Y0011574D01*
X0011408Y0011688D01*
X0011301Y0011805D01*
X0011197Y0011924D01*
X0011096Y0012046D01*
X0010999Y0012171D01*
X0010904Y0012298D01*
X0010813Y0012427D01*
X0010724Y0012558D01*
X0010640Y0012692D01*
X0010558Y0012828D01*
X0010480Y0012965D01*
X0010406Y0013105D01*
X0010335Y0013247D01*
X0010267Y0013390D01*
X0010203Y0013535D01*
X0010143Y0013681D01*
X0010087Y0013829D01*
X0010034Y0013978D01*
X0009985Y0014129D01*
X0009940Y0014281D01*
X0009899Y0014434D01*
X0009861Y0014587D01*
X0009828Y0014742D01*
X0009798Y0014898D01*
X0009772Y0015054D01*
X0009751Y0015211D01*
X0009733Y0015368D01*
X0009719Y0015526D01*
X0009709Y0015684D01*
X0009703Y0015842D01*
X0009701Y0016000D01*
X0009701Y0246000D02*
X0009703Y0246158D01*
X0009709Y0246316D01*
X0009719Y0246474D01*
X0009733Y0246632D01*
X0009751Y0246789D01*
X0009772Y0246946D01*
X0009798Y0247102D01*
X0009828Y0247258D01*
X0009861Y0247413D01*
X0009899Y0247566D01*
X0009940Y0247719D01*
X0009985Y0247871D01*
X0010034Y0248022D01*
X0010087Y0248171D01*
X0010143Y0248319D01*
X0010203Y0248465D01*
X0010267Y0248610D01*
X0010335Y0248753D01*
X0010406Y0248895D01*
X0010480Y0249035D01*
X0010558Y0249172D01*
X0010640Y0249308D01*
X0010724Y0249442D01*
X0010813Y0249573D01*
X0010904Y0249702D01*
X0010999Y0249829D01*
X0011096Y0249954D01*
X0011197Y0250076D01*
X0011301Y0250195D01*
X0011408Y0250312D01*
X0011518Y0250426D01*
X0011631Y0250537D01*
X0011746Y0250646D01*
X0011864Y0250751D01*
X0011985Y0250853D01*
X0012108Y0250953D01*
X0012234Y0251049D01*
X0012362Y0251142D01*
X0012492Y0251232D01*
X0012625Y0251318D01*
X0012760Y0251402D01*
X0012896Y0251481D01*
X0013035Y0251558D01*
X0013176Y0251630D01*
X0013318Y0251700D01*
X0013462Y0251765D01*
X0013608Y0251827D01*
X0013755Y0251885D01*
X0013904Y0251940D01*
X0014054Y0251991D01*
X0014205Y0252038D01*
X0014357Y0252081D01*
X0014510Y0252120D01*
X0014665Y0252156D01*
X0014820Y0252187D01*
X0014976Y0252215D01*
X0015132Y0252239D01*
X0015289Y0252259D01*
X0015447Y0252275D01*
X0015604Y0252287D01*
X0015763Y0252295D01*
X0015921Y0252299D01*
X0016079Y0252299D01*
X0016237Y0252295D01*
X0016396Y0252287D01*
X0016553Y0252275D01*
X0016711Y0252259D01*
X0016868Y0252239D01*
X0017024Y0252215D01*
X0017180Y0252187D01*
X0017335Y0252156D01*
X0017490Y0252120D01*
X0017643Y0252081D01*
X0017795Y0252038D01*
X0017946Y0251991D01*
X0018096Y0251940D01*
X0018245Y0251885D01*
X0018392Y0251827D01*
X0018538Y0251765D01*
X0018682Y0251700D01*
X0018824Y0251630D01*
X0018965Y0251558D01*
X0019104Y0251481D01*
X0019240Y0251402D01*
X0019375Y0251318D01*
X0019508Y0251232D01*
X0019638Y0251142D01*
X0019766Y0251049D01*
X0019892Y0250953D01*
X0020015Y0250853D01*
X0020136Y0250751D01*
X0020254Y0250646D01*
X0020369Y0250537D01*
X0020482Y0250426D01*
X0020592Y0250312D01*
X0020699Y0250195D01*
X0020803Y0250076D01*
X0020904Y0249954D01*
X0021001Y0249829D01*
X0021096Y0249702D01*
X0021187Y0249573D01*
X0021276Y0249442D01*
X0021360Y0249308D01*
X0021442Y0249172D01*
X0021520Y0249035D01*
X0021594Y0248895D01*
X0021665Y0248753D01*
X0021733Y0248610D01*
X0021797Y0248465D01*
X0021857Y0248319D01*
X0021913Y0248171D01*
X0021966Y0248022D01*
X0022015Y0247871D01*
X0022060Y0247719D01*
X0022101Y0247566D01*
X0022139Y0247413D01*
X0022172Y0247258D01*
X0022202Y0247102D01*
X0022228Y0246946D01*
X0022249Y0246789D01*
X0022267Y0246632D01*
X0022281Y0246474D01*
X0022291Y0246316D01*
X0022297Y0246158D01*
X0022299Y0246000D01*
X0022297Y0245842D01*
X0022291Y0245684D01*
X0022281Y0245526D01*
X0022267Y0245368D01*
X0022249Y0245211D01*
X0022228Y0245054D01*
X0022202Y0244898D01*
X0022172Y0244742D01*
X0022139Y0244587D01*
X0022101Y0244434D01*
X0022060Y0244281D01*
X0022015Y0244129D01*
X0021966Y0243978D01*
X0021913Y0243829D01*
X0021857Y0243681D01*
X0021797Y0243535D01*
X0021733Y0243390D01*
X0021665Y0243247D01*
X0021594Y0243105D01*
X0021520Y0242965D01*
X0021442Y0242828D01*
X0021360Y0242692D01*
X0021276Y0242558D01*
X0021187Y0242427D01*
X0021096Y0242298D01*
X0021001Y0242171D01*
X0020904Y0242046D01*
X0020803Y0241924D01*
X0020699Y0241805D01*
X0020592Y0241688D01*
X0020482Y0241574D01*
X0020369Y0241463D01*
X0020254Y0241354D01*
X0020136Y0241249D01*
X0020015Y0241147D01*
X0019892Y0241047D01*
X0019766Y0240951D01*
X0019638Y0240858D01*
X0019508Y0240768D01*
X0019375Y0240682D01*
X0019240Y0240598D01*
X0019104Y0240519D01*
X0018965Y0240442D01*
X0018824Y0240370D01*
X0018682Y0240300D01*
X0018538Y0240235D01*
X0018392Y0240173D01*
X0018245Y0240115D01*
X0018096Y0240060D01*
X0017946Y0240009D01*
X0017795Y0239962D01*
X0017643Y0239919D01*
X0017490Y0239880D01*
X0017335Y0239844D01*
X0017180Y0239813D01*
X0017024Y0239785D01*
X0016868Y0239761D01*
X0016711Y0239741D01*
X0016553Y0239725D01*
X0016396Y0239713D01*
X0016237Y0239705D01*
X0016079Y0239701D01*
X0015921Y0239701D01*
X0015763Y0239705D01*
X0015604Y0239713D01*
X0015447Y0239725D01*
X0015289Y0239741D01*
X0015132Y0239761D01*
X0014976Y0239785D01*
X0014820Y0239813D01*
X0014665Y0239844D01*
X0014510Y0239880D01*
X0014357Y0239919D01*
X0014205Y0239962D01*
X0014054Y0240009D01*
X0013904Y0240060D01*
X0013755Y0240115D01*
X0013608Y0240173D01*
X0013462Y0240235D01*
X0013318Y0240300D01*
X0013176Y0240370D01*
X0013035Y0240442D01*
X0012896Y0240519D01*
X0012760Y0240598D01*
X0012625Y0240682D01*
X0012492Y0240768D01*
X0012362Y0240858D01*
X0012234Y0240951D01*
X0012108Y0241047D01*
X0011985Y0241147D01*
X0011864Y0241249D01*
X0011746Y0241354D01*
X0011631Y0241463D01*
X0011518Y0241574D01*
X0011408Y0241688D01*
X0011301Y0241805D01*
X0011197Y0241924D01*
X0011096Y0242046D01*
X0010999Y0242171D01*
X0010904Y0242298D01*
X0010813Y0242427D01*
X0010724Y0242558D01*
X0010640Y0242692D01*
X0010558Y0242828D01*
X0010480Y0242965D01*
X0010406Y0243105D01*
X0010335Y0243247D01*
X0010267Y0243390D01*
X0010203Y0243535D01*
X0010143Y0243681D01*
X0010087Y0243829D01*
X0010034Y0243978D01*
X0009985Y0244129D01*
X0009940Y0244281D01*
X0009899Y0244434D01*
X0009861Y0244587D01*
X0009828Y0244742D01*
X0009798Y0244898D01*
X0009772Y0245054D01*
X0009751Y0245211D01*
X0009733Y0245368D01*
X0009719Y0245526D01*
X0009709Y0245684D01*
X0009703Y0245842D01*
X0009701Y0246000D01*
X0204701Y0246000D02*
X0204703Y0246158D01*
X0204709Y0246316D01*
X0204719Y0246474D01*
X0204733Y0246632D01*
X0204751Y0246789D01*
X0204772Y0246946D01*
X0204798Y0247102D01*
X0204828Y0247258D01*
X0204861Y0247413D01*
X0204899Y0247566D01*
X0204940Y0247719D01*
X0204985Y0247871D01*
X0205034Y0248022D01*
X0205087Y0248171D01*
X0205143Y0248319D01*
X0205203Y0248465D01*
X0205267Y0248610D01*
X0205335Y0248753D01*
X0205406Y0248895D01*
X0205480Y0249035D01*
X0205558Y0249172D01*
X0205640Y0249308D01*
X0205724Y0249442D01*
X0205813Y0249573D01*
X0205904Y0249702D01*
X0205999Y0249829D01*
X0206096Y0249954D01*
X0206197Y0250076D01*
X0206301Y0250195D01*
X0206408Y0250312D01*
X0206518Y0250426D01*
X0206631Y0250537D01*
X0206746Y0250646D01*
X0206864Y0250751D01*
X0206985Y0250853D01*
X0207108Y0250953D01*
X0207234Y0251049D01*
X0207362Y0251142D01*
X0207492Y0251232D01*
X0207625Y0251318D01*
X0207760Y0251402D01*
X0207896Y0251481D01*
X0208035Y0251558D01*
X0208176Y0251630D01*
X0208318Y0251700D01*
X0208462Y0251765D01*
X0208608Y0251827D01*
X0208755Y0251885D01*
X0208904Y0251940D01*
X0209054Y0251991D01*
X0209205Y0252038D01*
X0209357Y0252081D01*
X0209510Y0252120D01*
X0209665Y0252156D01*
X0209820Y0252187D01*
X0209976Y0252215D01*
X0210132Y0252239D01*
X0210289Y0252259D01*
X0210447Y0252275D01*
X0210604Y0252287D01*
X0210763Y0252295D01*
X0210921Y0252299D01*
X0211079Y0252299D01*
X0211237Y0252295D01*
X0211396Y0252287D01*
X0211553Y0252275D01*
X0211711Y0252259D01*
X0211868Y0252239D01*
X0212024Y0252215D01*
X0212180Y0252187D01*
X0212335Y0252156D01*
X0212490Y0252120D01*
X0212643Y0252081D01*
X0212795Y0252038D01*
X0212946Y0251991D01*
X0213096Y0251940D01*
X0213245Y0251885D01*
X0213392Y0251827D01*
X0213538Y0251765D01*
X0213682Y0251700D01*
X0213824Y0251630D01*
X0213965Y0251558D01*
X0214104Y0251481D01*
X0214240Y0251402D01*
X0214375Y0251318D01*
X0214508Y0251232D01*
X0214638Y0251142D01*
X0214766Y0251049D01*
X0214892Y0250953D01*
X0215015Y0250853D01*
X0215136Y0250751D01*
X0215254Y0250646D01*
X0215369Y0250537D01*
X0215482Y0250426D01*
X0215592Y0250312D01*
X0215699Y0250195D01*
X0215803Y0250076D01*
X0215904Y0249954D01*
X0216001Y0249829D01*
X0216096Y0249702D01*
X0216187Y0249573D01*
X0216276Y0249442D01*
X0216360Y0249308D01*
X0216442Y0249172D01*
X0216520Y0249035D01*
X0216594Y0248895D01*
X0216665Y0248753D01*
X0216733Y0248610D01*
X0216797Y0248465D01*
X0216857Y0248319D01*
X0216913Y0248171D01*
X0216966Y0248022D01*
X0217015Y0247871D01*
X0217060Y0247719D01*
X0217101Y0247566D01*
X0217139Y0247413D01*
X0217172Y0247258D01*
X0217202Y0247102D01*
X0217228Y0246946D01*
X0217249Y0246789D01*
X0217267Y0246632D01*
X0217281Y0246474D01*
X0217291Y0246316D01*
X0217297Y0246158D01*
X0217299Y0246000D01*
X0217297Y0245842D01*
X0217291Y0245684D01*
X0217281Y0245526D01*
X0217267Y0245368D01*
X0217249Y0245211D01*
X0217228Y0245054D01*
X0217202Y0244898D01*
X0217172Y0244742D01*
X0217139Y0244587D01*
X0217101Y0244434D01*
X0217060Y0244281D01*
X0217015Y0244129D01*
X0216966Y0243978D01*
X0216913Y0243829D01*
X0216857Y0243681D01*
X0216797Y0243535D01*
X0216733Y0243390D01*
X0216665Y0243247D01*
X0216594Y0243105D01*
X0216520Y0242965D01*
X0216442Y0242828D01*
X0216360Y0242692D01*
X0216276Y0242558D01*
X0216187Y0242427D01*
X0216096Y0242298D01*
X0216001Y0242171D01*
X0215904Y0242046D01*
X0215803Y0241924D01*
X0215699Y0241805D01*
X0215592Y0241688D01*
X0215482Y0241574D01*
X0215369Y0241463D01*
X0215254Y0241354D01*
X0215136Y0241249D01*
X0215015Y0241147D01*
X0214892Y0241047D01*
X0214766Y0240951D01*
X0214638Y0240858D01*
X0214508Y0240768D01*
X0214375Y0240682D01*
X0214240Y0240598D01*
X0214104Y0240519D01*
X0213965Y0240442D01*
X0213824Y0240370D01*
X0213682Y0240300D01*
X0213538Y0240235D01*
X0213392Y0240173D01*
X0213245Y0240115D01*
X0213096Y0240060D01*
X0212946Y0240009D01*
X0212795Y0239962D01*
X0212643Y0239919D01*
X0212490Y0239880D01*
X0212335Y0239844D01*
X0212180Y0239813D01*
X0212024Y0239785D01*
X0211868Y0239761D01*
X0211711Y0239741D01*
X0211553Y0239725D01*
X0211396Y0239713D01*
X0211237Y0239705D01*
X0211079Y0239701D01*
X0210921Y0239701D01*
X0210763Y0239705D01*
X0210604Y0239713D01*
X0210447Y0239725D01*
X0210289Y0239741D01*
X0210132Y0239761D01*
X0209976Y0239785D01*
X0209820Y0239813D01*
X0209665Y0239844D01*
X0209510Y0239880D01*
X0209357Y0239919D01*
X0209205Y0239962D01*
X0209054Y0240009D01*
X0208904Y0240060D01*
X0208755Y0240115D01*
X0208608Y0240173D01*
X0208462Y0240235D01*
X0208318Y0240300D01*
X0208176Y0240370D01*
X0208035Y0240442D01*
X0207896Y0240519D01*
X0207760Y0240598D01*
X0207625Y0240682D01*
X0207492Y0240768D01*
X0207362Y0240858D01*
X0207234Y0240951D01*
X0207108Y0241047D01*
X0206985Y0241147D01*
X0206864Y0241249D01*
X0206746Y0241354D01*
X0206631Y0241463D01*
X0206518Y0241574D01*
X0206408Y0241688D01*
X0206301Y0241805D01*
X0206197Y0241924D01*
X0206096Y0242046D01*
X0205999Y0242171D01*
X0205904Y0242298D01*
X0205813Y0242427D01*
X0205724Y0242558D01*
X0205640Y0242692D01*
X0205558Y0242828D01*
X0205480Y0242965D01*
X0205406Y0243105D01*
X0205335Y0243247D01*
X0205267Y0243390D01*
X0205203Y0243535D01*
X0205143Y0243681D01*
X0205087Y0243829D01*
X0205034Y0243978D01*
X0204985Y0244129D01*
X0204940Y0244281D01*
X0204899Y0244434D01*
X0204861Y0244587D01*
X0204828Y0244742D01*
X0204798Y0244898D01*
X0204772Y0245054D01*
X0204751Y0245211D01*
X0204733Y0245368D01*
X0204719Y0245526D01*
X0204709Y0245684D01*
X0204703Y0245842D01*
X0204701Y0246000D01*
X0204701Y0016000D02*
X0204703Y0016158D01*
X0204709Y0016316D01*
X0204719Y0016474D01*
X0204733Y0016632D01*
X0204751Y0016789D01*
X0204772Y0016946D01*
X0204798Y0017102D01*
X0204828Y0017258D01*
X0204861Y0017413D01*
X0204899Y0017566D01*
X0204940Y0017719D01*
X0204985Y0017871D01*
X0205034Y0018022D01*
X0205087Y0018171D01*
X0205143Y0018319D01*
X0205203Y0018465D01*
X0205267Y0018610D01*
X0205335Y0018753D01*
X0205406Y0018895D01*
X0205480Y0019035D01*
X0205558Y0019172D01*
X0205640Y0019308D01*
X0205724Y0019442D01*
X0205813Y0019573D01*
X0205904Y0019702D01*
X0205999Y0019829D01*
X0206096Y0019954D01*
X0206197Y0020076D01*
X0206301Y0020195D01*
X0206408Y0020312D01*
X0206518Y0020426D01*
X0206631Y0020537D01*
X0206746Y0020646D01*
X0206864Y0020751D01*
X0206985Y0020853D01*
X0207108Y0020953D01*
X0207234Y0021049D01*
X0207362Y0021142D01*
X0207492Y0021232D01*
X0207625Y0021318D01*
X0207760Y0021402D01*
X0207896Y0021481D01*
X0208035Y0021558D01*
X0208176Y0021630D01*
X0208318Y0021700D01*
X0208462Y0021765D01*
X0208608Y0021827D01*
X0208755Y0021885D01*
X0208904Y0021940D01*
X0209054Y0021991D01*
X0209205Y0022038D01*
X0209357Y0022081D01*
X0209510Y0022120D01*
X0209665Y0022156D01*
X0209820Y0022187D01*
X0209976Y0022215D01*
X0210132Y0022239D01*
X0210289Y0022259D01*
X0210447Y0022275D01*
X0210604Y0022287D01*
X0210763Y0022295D01*
X0210921Y0022299D01*
X0211079Y0022299D01*
X0211237Y0022295D01*
X0211396Y0022287D01*
X0211553Y0022275D01*
X0211711Y0022259D01*
X0211868Y0022239D01*
X0212024Y0022215D01*
X0212180Y0022187D01*
X0212335Y0022156D01*
X0212490Y0022120D01*
X0212643Y0022081D01*
X0212795Y0022038D01*
X0212946Y0021991D01*
X0213096Y0021940D01*
X0213245Y0021885D01*
X0213392Y0021827D01*
X0213538Y0021765D01*
X0213682Y0021700D01*
X0213824Y0021630D01*
X0213965Y0021558D01*
X0214104Y0021481D01*
X0214240Y0021402D01*
X0214375Y0021318D01*
X0214508Y0021232D01*
X0214638Y0021142D01*
X0214766Y0021049D01*
X0214892Y0020953D01*
X0215015Y0020853D01*
X0215136Y0020751D01*
X0215254Y0020646D01*
X0215369Y0020537D01*
X0215482Y0020426D01*
X0215592Y0020312D01*
X0215699Y0020195D01*
X0215803Y0020076D01*
X0215904Y0019954D01*
X0216001Y0019829D01*
X0216096Y0019702D01*
X0216187Y0019573D01*
X0216276Y0019442D01*
X0216360Y0019308D01*
X0216442Y0019172D01*
X0216520Y0019035D01*
X0216594Y0018895D01*
X0216665Y0018753D01*
X0216733Y0018610D01*
X0216797Y0018465D01*
X0216857Y0018319D01*
X0216913Y0018171D01*
X0216966Y0018022D01*
X0217015Y0017871D01*
X0217060Y0017719D01*
X0217101Y0017566D01*
X0217139Y0017413D01*
X0217172Y0017258D01*
X0217202Y0017102D01*
X0217228Y0016946D01*
X0217249Y0016789D01*
X0217267Y0016632D01*
X0217281Y0016474D01*
X0217291Y0016316D01*
X0217297Y0016158D01*
X0217299Y0016000D01*
X0217297Y0015842D01*
X0217291Y0015684D01*
X0217281Y0015526D01*
X0217267Y0015368D01*
X0217249Y0015211D01*
X0217228Y0015054D01*
X0217202Y0014898D01*
X0217172Y0014742D01*
X0217139Y0014587D01*
X0217101Y0014434D01*
X0217060Y0014281D01*
X0217015Y0014129D01*
X0216966Y0013978D01*
X0216913Y0013829D01*
X0216857Y0013681D01*
X0216797Y0013535D01*
X0216733Y0013390D01*
X0216665Y0013247D01*
X0216594Y0013105D01*
X0216520Y0012965D01*
X0216442Y0012828D01*
X0216360Y0012692D01*
X0216276Y0012558D01*
X0216187Y0012427D01*
X0216096Y0012298D01*
X0216001Y0012171D01*
X0215904Y0012046D01*
X0215803Y0011924D01*
X0215699Y0011805D01*
X0215592Y0011688D01*
X0215482Y0011574D01*
X0215369Y0011463D01*
X0215254Y0011354D01*
X0215136Y0011249D01*
X0215015Y0011147D01*
X0214892Y0011047D01*
X0214766Y0010951D01*
X0214638Y0010858D01*
X0214508Y0010768D01*
X0214375Y0010682D01*
X0214240Y0010598D01*
X0214104Y0010519D01*
X0213965Y0010442D01*
X0213824Y0010370D01*
X0213682Y0010300D01*
X0213538Y0010235D01*
X0213392Y0010173D01*
X0213245Y0010115D01*
X0213096Y0010060D01*
X0212946Y0010009D01*
X0212795Y0009962D01*
X0212643Y0009919D01*
X0212490Y0009880D01*
X0212335Y0009844D01*
X0212180Y0009813D01*
X0212024Y0009785D01*
X0211868Y0009761D01*
X0211711Y0009741D01*
X0211553Y0009725D01*
X0211396Y0009713D01*
X0211237Y0009705D01*
X0211079Y0009701D01*
X0210921Y0009701D01*
X0210763Y0009705D01*
X0210604Y0009713D01*
X0210447Y0009725D01*
X0210289Y0009741D01*
X0210132Y0009761D01*
X0209976Y0009785D01*
X0209820Y0009813D01*
X0209665Y0009844D01*
X0209510Y0009880D01*
X0209357Y0009919D01*
X0209205Y0009962D01*
X0209054Y0010009D01*
X0208904Y0010060D01*
X0208755Y0010115D01*
X0208608Y0010173D01*
X0208462Y0010235D01*
X0208318Y0010300D01*
X0208176Y0010370D01*
X0208035Y0010442D01*
X0207896Y0010519D01*
X0207760Y0010598D01*
X0207625Y0010682D01*
X0207492Y0010768D01*
X0207362Y0010858D01*
X0207234Y0010951D01*
X0207108Y0011047D01*
X0206985Y0011147D01*
X0206864Y0011249D01*
X0206746Y0011354D01*
X0206631Y0011463D01*
X0206518Y0011574D01*
X0206408Y0011688D01*
X0206301Y0011805D01*
X0206197Y0011924D01*
X0206096Y0012046D01*
X0205999Y0012171D01*
X0205904Y0012298D01*
X0205813Y0012427D01*
X0205724Y0012558D01*
X0205640Y0012692D01*
X0205558Y0012828D01*
X0205480Y0012965D01*
X0205406Y0013105D01*
X0205335Y0013247D01*
X0205267Y0013390D01*
X0205203Y0013535D01*
X0205143Y0013681D01*
X0205087Y0013829D01*
X0205034Y0013978D01*
X0204985Y0014129D01*
X0204940Y0014281D01*
X0204899Y0014434D01*
X0204861Y0014587D01*
X0204828Y0014742D01*
X0204798Y0014898D01*
X0204772Y0015054D01*
X0204751Y0015211D01*
X0204733Y0015368D01*
X0204719Y0015526D01*
X0204709Y0015684D01*
X0204703Y0015842D01*
X0204701Y0016000D01*
D11*
X0126433Y0036000D03*
X0116433Y0036000D03*
X0123874Y0061000D03*
X0108874Y0061000D03*
X0093874Y0061000D03*
X0079819Y0061000D03*
X0086433Y0036000D03*
X0096433Y0036000D03*
X0066433Y0036000D03*
X0056433Y0036000D03*
X0034386Y0036000D03*
X0024386Y0036000D03*
X0079819Y0091000D03*
X0093874Y0091000D03*
X0108874Y0091000D03*
X0112969Y0104189D03*
X0123874Y0091000D03*
X0096000Y0131000D03*
X0112969Y0134189D03*
X0096000Y0151000D03*
X0076000Y0151000D03*
X0076000Y0131000D03*
X0056000Y0141000D03*
X0026000Y0141000D03*
X0181000Y0186000D03*
X0181000Y0201000D03*
X0181000Y0216000D03*
X0211000Y0216000D03*
X0211000Y0201000D03*
X0211000Y0186000D03*
D12*
X0211000Y0039000D02*
X0211000Y0033000D01*
X0201000Y0033000D02*
X0201000Y0039000D01*
X0191000Y0039000D02*
X0191000Y0033000D01*
X0181000Y0033000D02*
X0181000Y0039000D01*
X0171000Y0039000D02*
X0171000Y0033000D01*
X0161000Y0033000D02*
X0161000Y0039000D01*
X0056800Y0167100D02*
X0050800Y0167100D01*
X0050800Y0184900D02*
X0056800Y0184900D01*
X0056800Y0207100D02*
X0050800Y0207100D01*
X0050800Y0224900D02*
X0056800Y0224900D01*
X0031200Y0224900D02*
X0025200Y0224900D01*
X0025200Y0207100D02*
X0031200Y0207100D01*
X0031200Y0184900D02*
X0025200Y0184900D01*
X0025200Y0167100D02*
X0031200Y0167100D01*
X0034000Y0116000D02*
X0028000Y0116000D01*
X0028000Y0106000D02*
X0034000Y0106000D01*
X0034000Y0096000D02*
X0028000Y0096000D01*
X0028000Y0086000D02*
X0034000Y0086000D01*
D13*
X0085990Y0206118D03*
X0085990Y0212024D03*
X0085990Y0217929D03*
X0085990Y0223835D03*
X0085990Y0229740D03*
X0085990Y0235646D03*
X0085990Y0241551D03*
X0085990Y0247457D03*
X0085990Y0253362D03*
X0156010Y0253362D03*
X0156010Y0247457D03*
X0156010Y0241551D03*
X0156010Y0235646D03*
X0156010Y0229740D03*
X0156010Y0223835D03*
X0156010Y0217929D03*
X0156010Y0212024D03*
X0156010Y0206118D03*
D14*
X0156000Y0148600D02*
X0156000Y0143400D01*
X0146000Y0143400D02*
X0146000Y0148600D01*
X0136000Y0148600D02*
X0136000Y0143400D01*
X0136000Y0118600D02*
X0136000Y0113400D01*
X0146000Y0113400D02*
X0146000Y0118600D01*
X0156000Y0118600D02*
X0156000Y0113400D01*
X0166000Y0113400D02*
X0166000Y0118600D01*
X0176000Y0118600D02*
X0176000Y0113400D01*
X0186000Y0113400D02*
X0186000Y0118600D01*
X0196000Y0118600D02*
X0196000Y0113400D01*
X0206000Y0113400D02*
X0206000Y0118600D01*
X0206000Y0143400D02*
X0206000Y0148600D01*
X0196000Y0148600D02*
X0196000Y0143400D01*
X0186000Y0143400D02*
X0186000Y0148600D01*
X0176000Y0148600D02*
X0176000Y0143400D01*
X0166000Y0143400D02*
X0166000Y0148600D01*
D15*
X0061000Y0111000D03*
X0061000Y0091000D03*
D16*
X0046000Y0091000D02*
X0046000Y0106000D01*
X0051000Y0111000D01*
X0061000Y0111000D01*
X0076000Y0111000D01*
X0096000Y0131000D01*
X0096000Y0151000D01*
X0096000Y0251000D01*
X0093638Y0253362D01*
X0085990Y0253362D01*
X0053800Y0207100D02*
X0054782Y0206118D01*
X0085990Y0206118D01*
X0053800Y0184900D02*
X0041000Y0184900D01*
X0028200Y0184900D01*
X0046000Y0091000D02*
X0041000Y0086000D01*
X0031000Y0086000D01*
X0112969Y0104189D02*
X0112969Y0112969D01*
X0121000Y0121000D01*
X0121000Y0201000D01*
X0131000Y0211000D01*
X0141000Y0211000D01*
X0146000Y0216000D01*
X0146000Y0221000D01*
X0148835Y0223835D01*
X0156010Y0223835D01*
X0146000Y0221000D02*
X0146000Y0251000D01*
X0148362Y0253362D01*
X0156010Y0253362D01*
X0166000Y0146000D02*
X0176000Y0146000D01*
X0176000Y0116000D01*
X0166000Y0116000D01*
X0206000Y0116000D02*
X0211000Y0111000D01*
X0211000Y0056000D01*
X0201000Y0046000D01*
X0201000Y0036000D01*
D17*
X0186000Y0116000D02*
X0186000Y0126945D01*
X0180400Y0132545D01*
X0180400Y0162151D01*
X0176197Y0166354D01*
X0176197Y0176197D01*
X0178382Y0178380D02*
X0191513Y0178380D01*
X0191513Y0179578D02*
X0168755Y0179578D01*
X0168619Y0179250D02*
X0169089Y0180386D01*
X0169089Y0181614D01*
X0168619Y0182750D01*
X0167750Y0183619D01*
X0166614Y0184089D01*
X0165386Y0184089D01*
X0164250Y0183619D01*
X0163381Y0182750D01*
X0162911Y0181614D01*
X0162911Y0180386D01*
X0163381Y0179250D01*
X0163600Y0179032D01*
X0163600Y0158480D01*
X0158400Y0158480D01*
X0158400Y0162417D01*
X0158619Y0162636D01*
X0159089Y0163771D01*
X0159089Y0165000D01*
X0158619Y0166136D01*
X0158400Y0166354D01*
X0158400Y0202546D01*
X0159679Y0202546D01*
X0160733Y0203601D01*
X0160733Y0208635D01*
X0160298Y0209071D01*
X0160733Y0209506D01*
X0160733Y0214541D01*
X0160298Y0214976D01*
X0160733Y0215412D01*
X0160733Y0220446D01*
X0160298Y0220882D01*
X0160733Y0221317D01*
X0160733Y0226352D01*
X0160298Y0226787D01*
X0160733Y0227223D01*
X0160733Y0232257D01*
X0160298Y0232693D01*
X0160733Y0233128D01*
X0160733Y0233246D01*
X0174809Y0233246D01*
X0178600Y0229455D01*
X0178600Y0219823D01*
X0176600Y0217823D01*
X0176600Y0214177D01*
X0179177Y0211600D01*
X0182823Y0211600D01*
X0185400Y0214177D01*
X0185400Y0217823D01*
X0183400Y0219823D01*
X0183400Y0230926D01*
X0183035Y0231808D01*
X0177163Y0237680D01*
X0176281Y0238046D01*
X0160733Y0238046D01*
X0160733Y0238163D01*
X0160298Y0238598D01*
X0160733Y0239034D01*
X0160733Y0244068D01*
X0160298Y0244504D01*
X0160733Y0244939D01*
X0160733Y0249974D01*
X0160298Y0250409D01*
X0160733Y0250845D01*
X0160733Y0255879D01*
X0159707Y0256906D01*
X0221472Y0256906D01*
X0221472Y0158480D01*
X0188400Y0158480D01*
X0188400Y0161384D01*
X0195948Y0168932D01*
X0196313Y0169814D01*
X0196313Y0184071D01*
X0196532Y0184290D01*
X0197002Y0185425D01*
X0197002Y0186654D01*
X0196532Y0187789D01*
X0195663Y0188658D01*
X0194528Y0189128D01*
X0193299Y0189128D01*
X0192164Y0188658D01*
X0191295Y0187789D01*
X0190824Y0186654D01*
X0190824Y0185425D01*
X0191295Y0184290D01*
X0191513Y0184071D01*
X0191513Y0171285D01*
X0183965Y0163737D01*
X0183600Y0162855D01*
X0183600Y0158480D01*
X0182800Y0158480D01*
X0182800Y0162629D01*
X0182435Y0163511D01*
X0178597Y0167348D01*
X0178597Y0174228D01*
X0178816Y0174447D01*
X0179286Y0175582D01*
X0179286Y0176811D01*
X0178816Y0177947D01*
X0177947Y0178816D01*
X0176811Y0179286D01*
X0175582Y0179286D01*
X0174447Y0178816D01*
X0173578Y0177947D01*
X0173108Y0176811D01*
X0173108Y0175582D01*
X0173578Y0174447D01*
X0173797Y0174228D01*
X0173797Y0165877D01*
X0174162Y0164995D01*
X0174837Y0164320D01*
X0178000Y0161157D01*
X0178000Y0158480D01*
X0168400Y0158480D01*
X0168400Y0179032D01*
X0168619Y0179250D01*
X0168400Y0178380D02*
X0174011Y0178380D01*
X0173261Y0177181D02*
X0168400Y0177181D01*
X0168400Y0175983D02*
X0173108Y0175983D01*
X0173439Y0174784D02*
X0168400Y0174784D01*
X0168400Y0173586D02*
X0173797Y0173586D01*
X0173797Y0172387D02*
X0168400Y0172387D01*
X0168400Y0171189D02*
X0173797Y0171189D01*
X0173797Y0169990D02*
X0168400Y0169990D01*
X0168400Y0168792D02*
X0173797Y0168792D01*
X0173797Y0167593D02*
X0168400Y0167593D01*
X0168400Y0166395D02*
X0173797Y0166395D01*
X0174079Y0165196D02*
X0168400Y0165196D01*
X0168400Y0163998D02*
X0175160Y0163998D01*
X0176358Y0162799D02*
X0168400Y0162799D01*
X0168400Y0161601D02*
X0177557Y0161601D01*
X0178000Y0160402D02*
X0168400Y0160402D01*
X0168400Y0159203D02*
X0178000Y0159203D01*
X0182800Y0159203D02*
X0183600Y0159203D01*
X0183600Y0160402D02*
X0182800Y0160402D01*
X0182800Y0161601D02*
X0183600Y0161601D01*
X0183600Y0162799D02*
X0182729Y0162799D01*
X0181948Y0163998D02*
X0184225Y0163998D01*
X0185424Y0165196D02*
X0180749Y0165196D01*
X0179551Y0166395D02*
X0186623Y0166395D01*
X0187821Y0167593D02*
X0178597Y0167593D01*
X0178597Y0168792D02*
X0189020Y0168792D01*
X0190218Y0169990D02*
X0178597Y0169990D01*
X0178597Y0171189D02*
X0191417Y0171189D01*
X0191513Y0172387D02*
X0178597Y0172387D01*
X0178597Y0173586D02*
X0191513Y0173586D01*
X0191513Y0174784D02*
X0178955Y0174784D01*
X0179286Y0175983D02*
X0191513Y0175983D01*
X0191513Y0177181D02*
X0179133Y0177181D01*
X0179177Y0181600D02*
X0182823Y0181600D01*
X0185400Y0184177D01*
X0185400Y0187823D01*
X0182823Y0190400D01*
X0179177Y0190400D01*
X0176600Y0187823D01*
X0176600Y0184177D01*
X0179177Y0181600D01*
X0178802Y0181975D02*
X0168940Y0181975D01*
X0169089Y0180777D02*
X0191513Y0180777D01*
X0191513Y0181975D02*
X0183198Y0181975D01*
X0184396Y0183174D02*
X0191513Y0183174D01*
X0191260Y0184372D02*
X0185400Y0184372D01*
X0185400Y0185571D02*
X0190824Y0185571D01*
X0190872Y0186769D02*
X0185400Y0186769D01*
X0185255Y0187968D02*
X0191473Y0187968D01*
X0193913Y0186039D02*
X0193913Y0170291D01*
X0186000Y0162378D01*
X0186000Y0146000D01*
X0188400Y0159203D02*
X0221472Y0159203D01*
X0221472Y0160402D02*
X0188400Y0160402D01*
X0188617Y0161601D02*
X0221472Y0161601D01*
X0221472Y0162799D02*
X0189815Y0162799D01*
X0191014Y0163998D02*
X0221472Y0163998D01*
X0221472Y0165196D02*
X0192212Y0165196D01*
X0193411Y0166395D02*
X0221472Y0166395D01*
X0221472Y0167593D02*
X0194609Y0167593D01*
X0195808Y0168792D02*
X0221472Y0168792D01*
X0221472Y0169990D02*
X0196313Y0169990D01*
X0196313Y0171189D02*
X0221472Y0171189D01*
X0221472Y0172387D02*
X0196313Y0172387D01*
X0196313Y0173586D02*
X0221472Y0173586D01*
X0221472Y0174784D02*
X0196313Y0174784D01*
X0196313Y0175983D02*
X0221472Y0175983D01*
X0221472Y0177181D02*
X0196313Y0177181D01*
X0196313Y0178380D02*
X0221472Y0178380D01*
X0221472Y0179578D02*
X0196313Y0179578D01*
X0196313Y0180777D02*
X0221472Y0180777D01*
X0221472Y0181975D02*
X0212915Y0181975D01*
X0212740Y0181800D02*
X0215200Y0184260D01*
X0215200Y0185800D01*
X0211200Y0185800D01*
X0211200Y0186200D01*
X0215200Y0186200D01*
X0215200Y0187740D01*
X0212740Y0190200D01*
X0211200Y0190200D01*
X0211200Y0186200D01*
X0210800Y0186200D01*
X0210800Y0190200D01*
X0209260Y0190200D01*
X0206800Y0187740D01*
X0206800Y0186200D01*
X0210800Y0186200D01*
X0210800Y0185800D01*
X0211200Y0185800D01*
X0211200Y0181800D01*
X0212740Y0181800D01*
X0211200Y0181975D02*
X0210800Y0181975D01*
X0210800Y0181800D02*
X0210800Y0185800D01*
X0206800Y0185800D01*
X0206800Y0184260D01*
X0209260Y0181800D01*
X0210800Y0181800D01*
X0210800Y0183174D02*
X0211200Y0183174D01*
X0211200Y0184372D02*
X0210800Y0184372D01*
X0210800Y0185571D02*
X0211200Y0185571D01*
X0211200Y0186769D02*
X0210800Y0186769D01*
X0210800Y0187968D02*
X0211200Y0187968D01*
X0211200Y0189166D02*
X0210800Y0189166D01*
X0213773Y0189166D02*
X0221472Y0189166D01*
X0221472Y0187968D02*
X0214972Y0187968D01*
X0215200Y0186769D02*
X0221472Y0186769D01*
X0221472Y0185571D02*
X0215200Y0185571D01*
X0215200Y0184372D02*
X0221472Y0184372D01*
X0221472Y0183174D02*
X0214113Y0183174D01*
X0209085Y0181975D02*
X0196313Y0181975D01*
X0196313Y0183174D02*
X0207887Y0183174D01*
X0206800Y0184372D02*
X0196566Y0184372D01*
X0197002Y0185571D02*
X0206800Y0185571D01*
X0206800Y0186769D02*
X0196955Y0186769D01*
X0196353Y0187968D02*
X0207028Y0187968D01*
X0208227Y0189166D02*
X0184056Y0189166D01*
X0182858Y0190365D02*
X0221472Y0190365D01*
X0221472Y0191563D02*
X0158400Y0191563D01*
X0158400Y0190365D02*
X0179142Y0190365D01*
X0177944Y0189166D02*
X0158400Y0189166D01*
X0158400Y0187968D02*
X0176745Y0187968D01*
X0176600Y0186769D02*
X0158400Y0186769D01*
X0158400Y0185571D02*
X0176600Y0185571D01*
X0176600Y0184372D02*
X0158400Y0184372D01*
X0158400Y0183174D02*
X0163805Y0183174D01*
X0163060Y0181975D02*
X0158400Y0181975D01*
X0158400Y0180777D02*
X0162911Y0180777D01*
X0163245Y0179578D02*
X0158400Y0179578D01*
X0158400Y0178380D02*
X0163600Y0178380D01*
X0163600Y0177181D02*
X0158400Y0177181D01*
X0158400Y0175983D02*
X0163600Y0175983D01*
X0163600Y0174784D02*
X0158400Y0174784D01*
X0158400Y0173586D02*
X0163600Y0173586D01*
X0163600Y0172387D02*
X0158400Y0172387D01*
X0158400Y0171189D02*
X0163600Y0171189D01*
X0163600Y0169990D02*
X0158400Y0169990D01*
X0158400Y0168792D02*
X0163600Y0168792D01*
X0163600Y0167593D02*
X0158400Y0167593D01*
X0158400Y0166395D02*
X0163600Y0166395D01*
X0163600Y0165196D02*
X0159008Y0165196D01*
X0159089Y0163998D02*
X0163600Y0163998D01*
X0163600Y0162799D02*
X0158686Y0162799D01*
X0158400Y0161601D02*
X0163600Y0161601D01*
X0163600Y0160402D02*
X0158400Y0160402D01*
X0158400Y0159203D02*
X0163600Y0159203D01*
X0166000Y0156000D02*
X0160400Y0150400D01*
X0160400Y0132841D01*
X0156000Y0128441D01*
X0156000Y0116000D01*
X0134858Y0099425D02*
X0134858Y0004937D01*
X0004937Y0004937D01*
X0004937Y0256906D01*
X0145824Y0256906D01*
X0144717Y0255798D01*
X0142355Y0253436D01*
X0141700Y0251855D01*
X0141700Y0217781D01*
X0139219Y0215300D01*
X0139100Y0215300D01*
X0139100Y0238069D01*
X0138749Y0238421D01*
X0115751Y0238421D01*
X0115400Y0238069D01*
X0115400Y0215072D01*
X0115751Y0214721D01*
X0128747Y0214721D01*
X0128564Y0214645D01*
X0127355Y0213436D01*
X0118564Y0204645D01*
X0117355Y0203436D01*
X0116700Y0201855D01*
X0116700Y0136680D01*
X0114791Y0138589D01*
X0111146Y0138589D01*
X0108594Y0136037D01*
X0108594Y0184483D01*
X0113271Y0189160D01*
X0113636Y0190042D01*
X0113636Y0242399D01*
X0113855Y0242618D01*
X0114325Y0243753D01*
X0114325Y0244982D01*
X0113855Y0246117D01*
X0112986Y0246986D01*
X0111851Y0247457D01*
X0110622Y0247457D01*
X0109486Y0246986D01*
X0108618Y0246117D01*
X0108147Y0244982D01*
X0108147Y0243753D01*
X0108618Y0242618D01*
X0108836Y0242399D01*
X0108836Y0196796D01*
X0107914Y0197178D01*
X0106685Y0197178D01*
X0105549Y0196708D01*
X0104680Y0195839D01*
X0104210Y0194703D01*
X0104210Y0193817D01*
X0103977Y0193913D01*
X0102748Y0193913D01*
X0101612Y0193443D01*
X0100743Y0192574D01*
X0100273Y0191439D01*
X0100273Y0190282D01*
X0100034Y0190042D01*
X0099359Y0189367D01*
X0098994Y0188485D01*
X0098994Y0153946D01*
X0097740Y0155200D01*
X0096200Y0155200D01*
X0096200Y0151200D01*
X0095800Y0151200D01*
X0095800Y0155200D01*
X0094260Y0155200D01*
X0091800Y0152740D01*
X0091800Y0151200D01*
X0095800Y0151200D01*
X0095800Y0150800D01*
X0096200Y0150800D01*
X0096200Y0146800D01*
X0097740Y0146800D01*
X0098994Y0148054D01*
X0098994Y0133946D01*
X0097740Y0135200D01*
X0096200Y0135200D01*
X0096200Y0131200D01*
X0095800Y0131200D01*
X0095800Y0135200D01*
X0094260Y0135200D01*
X0091800Y0132740D01*
X0091800Y0131200D01*
X0095800Y0131200D01*
X0095800Y0130800D01*
X0096200Y0130800D01*
X0096200Y0126800D01*
X0097740Y0126800D01*
X0098994Y0128054D01*
X0098994Y0127978D01*
X0068538Y0097523D01*
X0067863Y0096848D01*
X0067498Y0095966D01*
X0067498Y0080734D01*
X0064967Y0078203D01*
X0028082Y0078203D01*
X0027200Y0077838D01*
X0022351Y0072989D01*
X0021986Y0072107D01*
X0021986Y0039823D01*
X0019986Y0037823D01*
X0019986Y0034177D01*
X0022563Y0031600D01*
X0026208Y0031600D01*
X0028786Y0034177D01*
X0028786Y0037823D01*
X0026786Y0039823D01*
X0026786Y0070636D01*
X0029553Y0073403D01*
X0056661Y0073403D01*
X0054398Y0071141D01*
X0054033Y0070258D01*
X0054033Y0039823D01*
X0052033Y0037823D01*
X0052033Y0034177D01*
X0054611Y0031600D01*
X0058256Y0031600D01*
X0060833Y0034177D01*
X0060833Y0037823D01*
X0058833Y0039823D01*
X0058833Y0068787D01*
X0061049Y0071003D01*
X0067432Y0071003D01*
X0068314Y0071369D01*
X0068989Y0072044D01*
X0074332Y0077387D01*
X0074698Y0078269D01*
X0074698Y0093500D01*
X0097025Y0115828D01*
X0097025Y0094071D01*
X0095697Y0095400D01*
X0092051Y0095400D01*
X0089474Y0092823D01*
X0089474Y0089177D01*
X0092051Y0086600D01*
X0095697Y0086600D01*
X0097025Y0087929D01*
X0097025Y0064071D01*
X0095697Y0065400D01*
X0092051Y0065400D01*
X0089474Y0062823D01*
X0089474Y0059177D01*
X0092051Y0056600D01*
X0094544Y0056600D01*
X0092526Y0054581D01*
X0089105Y0054581D01*
X0088223Y0054216D01*
X0085074Y0051066D01*
X0084398Y0050391D01*
X0084033Y0049509D01*
X0084033Y0039823D01*
X0082033Y0037823D01*
X0082033Y0034177D01*
X0084611Y0031600D01*
X0088256Y0031600D01*
X0090833Y0034177D01*
X0090833Y0037823D01*
X0088833Y0039823D01*
X0088833Y0048037D01*
X0090577Y0049781D01*
X0093997Y0049781D01*
X0094879Y0050146D01*
X0095554Y0050822D01*
X0101460Y0056727D01*
X0101825Y0057609D01*
X0101825Y0117233D01*
X0108228Y0123637D01*
X0108594Y0124519D01*
X0108594Y0132341D01*
X0111146Y0129789D01*
X0114791Y0129789D01*
X0116700Y0131698D01*
X0116700Y0122781D01*
X0110533Y0116614D01*
X0110533Y0116614D01*
X0109323Y0115404D01*
X0108669Y0113824D01*
X0108669Y0106111D01*
X0108569Y0106012D01*
X0108569Y0102366D01*
X0111146Y0099789D01*
X0114791Y0099789D01*
X0117368Y0102366D01*
X0117368Y0106012D01*
X0117268Y0106111D01*
X0117268Y0111187D01*
X0123436Y0117355D01*
X0124645Y0118564D01*
X0125300Y0120145D01*
X0125300Y0199219D01*
X0132781Y0206700D01*
X0139387Y0206700D01*
X0132824Y0200137D01*
X0132458Y0199255D01*
X0132458Y0189879D01*
X0132240Y0189661D01*
X0131769Y0188525D01*
X0131769Y0187297D01*
X0132240Y0186161D01*
X0133109Y0185292D01*
X0134244Y0184822D01*
X0135473Y0184822D01*
X0135885Y0184993D01*
X0136177Y0184290D01*
X0137046Y0183421D01*
X0138181Y0182950D01*
X0139410Y0182950D01*
X0140545Y0183421D01*
X0141414Y0184290D01*
X0141884Y0185425D01*
X0141884Y0186654D01*
X0141414Y0187789D01*
X0141195Y0188008D01*
X0141195Y0196856D01*
X0151287Y0206948D01*
X0151287Y0203601D01*
X0152341Y0202546D01*
X0153600Y0202546D01*
X0153600Y0166354D01*
X0153381Y0166136D01*
X0152911Y0165000D01*
X0152911Y0163771D01*
X0153381Y0162636D01*
X0153600Y0162417D01*
X0153600Y0158480D01*
X0130921Y0158480D01*
X0126984Y0154543D01*
X0126984Y0107299D01*
X0134858Y0099425D01*
X0134858Y0099278D02*
X0128105Y0099278D01*
X0128105Y0098811D02*
X0128105Y0100040D01*
X0127634Y0101175D01*
X0126766Y0102044D01*
X0125630Y0102514D01*
X0124401Y0102514D01*
X0123266Y0102044D01*
X0122397Y0101175D01*
X0121927Y0100040D01*
X0121927Y0098811D01*
X0122397Y0097675D01*
X0122616Y0097457D01*
X0122616Y0096979D01*
X0122981Y0096097D01*
X0123656Y0095422D01*
X0123678Y0095400D01*
X0122051Y0095400D01*
X0119474Y0092823D01*
X0119474Y0089177D01*
X0122051Y0086600D01*
X0125697Y0086600D01*
X0126553Y0087456D01*
X0126553Y0084671D01*
X0114398Y0072517D01*
X0114033Y0071635D01*
X0114033Y0039823D01*
X0112033Y0037823D01*
X0112033Y0034177D01*
X0114611Y0031600D01*
X0118256Y0031600D01*
X0120833Y0034177D01*
X0120833Y0037823D01*
X0118833Y0039823D01*
X0118833Y0070163D01*
X0130987Y0082318D01*
X0131353Y0083200D01*
X0131353Y0093997D01*
X0130987Y0094879D01*
X0127797Y0098069D01*
X0128105Y0098811D01*
X0127802Y0098079D02*
X0134858Y0098079D01*
X0134858Y0096881D02*
X0128986Y0096881D01*
X0130184Y0095682D02*
X0134858Y0095682D01*
X0134858Y0094484D02*
X0131151Y0094484D01*
X0131353Y0093285D02*
X0134858Y0093285D01*
X0134858Y0092087D02*
X0131353Y0092087D01*
X0131353Y0090888D02*
X0134858Y0090888D01*
X0134858Y0089690D02*
X0131353Y0089690D01*
X0131353Y0088491D02*
X0134858Y0088491D01*
X0134858Y0087293D02*
X0131353Y0087293D01*
X0131353Y0086094D02*
X0134858Y0086094D01*
X0134858Y0084896D02*
X0131353Y0084896D01*
X0131353Y0083697D02*
X0134858Y0083697D01*
X0134858Y0082499D02*
X0131062Y0082499D01*
X0129970Y0081300D02*
X0134858Y0081300D01*
X0134858Y0080102D02*
X0128771Y0080102D01*
X0127573Y0078903D02*
X0134858Y0078903D01*
X0134858Y0077705D02*
X0126374Y0077705D01*
X0125176Y0076506D02*
X0134858Y0076506D01*
X0134858Y0075308D02*
X0123977Y0075308D01*
X0122779Y0074109D02*
X0134858Y0074109D01*
X0134858Y0072911D02*
X0121580Y0072911D01*
X0120382Y0071712D02*
X0134858Y0071712D01*
X0134858Y0070514D02*
X0119183Y0070514D01*
X0118833Y0069315D02*
X0134858Y0069315D01*
X0134858Y0068117D02*
X0118833Y0068117D01*
X0118833Y0066918D02*
X0134858Y0066918D01*
X0134858Y0065720D02*
X0118833Y0065720D01*
X0118833Y0064521D02*
X0121173Y0064521D01*
X0122051Y0065400D02*
X0119474Y0062823D01*
X0119474Y0059177D01*
X0122051Y0056600D01*
X0125697Y0056600D01*
X0128274Y0059177D01*
X0128274Y0062823D01*
X0125697Y0065400D01*
X0122051Y0065400D01*
X0119974Y0063323D02*
X0118833Y0063323D01*
X0118833Y0062124D02*
X0119474Y0062124D01*
X0119474Y0060926D02*
X0118833Y0060926D01*
X0118833Y0059727D02*
X0119474Y0059727D01*
X0118833Y0058529D02*
X0120123Y0058529D01*
X0121321Y0057330D02*
X0118833Y0057330D01*
X0118833Y0056132D02*
X0134858Y0056132D01*
X0134858Y0057330D02*
X0126427Y0057330D01*
X0127625Y0058529D02*
X0134858Y0058529D01*
X0134858Y0059727D02*
X0128274Y0059727D01*
X0128274Y0060926D02*
X0134858Y0060926D01*
X0134858Y0062124D02*
X0128274Y0062124D01*
X0127774Y0063323D02*
X0134858Y0063323D01*
X0134858Y0064521D02*
X0126575Y0064521D01*
X0116433Y0071157D02*
X0128953Y0083677D01*
X0128953Y0093520D01*
X0125016Y0097457D01*
X0125016Y0099425D01*
X0127134Y0101675D02*
X0132609Y0101675D01*
X0133807Y0100476D02*
X0127924Y0100476D01*
X0130211Y0104072D02*
X0117368Y0104072D01*
X0117368Y0105270D02*
X0129013Y0105270D01*
X0127814Y0106469D02*
X0117268Y0106469D01*
X0117268Y0107668D02*
X0126984Y0107668D01*
X0126984Y0108866D02*
X0117268Y0108866D01*
X0117268Y0110065D02*
X0126984Y0110065D01*
X0126984Y0111263D02*
X0117344Y0111263D01*
X0118543Y0112462D02*
X0126984Y0112462D01*
X0126984Y0113660D02*
X0119741Y0113660D01*
X0120940Y0114859D02*
X0126984Y0114859D01*
X0126984Y0116057D02*
X0122138Y0116057D01*
X0123337Y0117256D02*
X0126984Y0117256D01*
X0126984Y0118454D02*
X0124535Y0118454D01*
X0125096Y0119653D02*
X0126984Y0119653D01*
X0126984Y0120851D02*
X0125300Y0120851D01*
X0125300Y0122050D02*
X0126984Y0122050D01*
X0126984Y0123248D02*
X0125300Y0123248D01*
X0125300Y0124447D02*
X0126984Y0124447D01*
X0126984Y0125645D02*
X0125300Y0125645D01*
X0125300Y0126844D02*
X0126984Y0126844D01*
X0126984Y0128042D02*
X0125300Y0128042D01*
X0125300Y0129241D02*
X0126984Y0129241D01*
X0126984Y0130439D02*
X0125300Y0130439D01*
X0125300Y0131638D02*
X0126984Y0131638D01*
X0126984Y0132836D02*
X0125300Y0132836D01*
X0125300Y0134035D02*
X0126984Y0134035D01*
X0126984Y0135233D02*
X0125300Y0135233D01*
X0125300Y0136432D02*
X0126984Y0136432D01*
X0126984Y0137630D02*
X0125300Y0137630D01*
X0125300Y0138829D02*
X0126984Y0138829D01*
X0126984Y0140027D02*
X0125300Y0140027D01*
X0125300Y0141226D02*
X0126984Y0141226D01*
X0126984Y0142424D02*
X0125300Y0142424D01*
X0125300Y0143623D02*
X0126984Y0143623D01*
X0126984Y0144821D02*
X0125300Y0144821D01*
X0125300Y0146020D02*
X0126984Y0146020D01*
X0126984Y0147218D02*
X0125300Y0147218D01*
X0125300Y0148417D02*
X0126984Y0148417D01*
X0126984Y0149615D02*
X0125300Y0149615D01*
X0125300Y0150814D02*
X0126984Y0150814D01*
X0126984Y0152012D02*
X0125300Y0152012D01*
X0125300Y0153211D02*
X0126984Y0153211D01*
X0126984Y0154409D02*
X0125300Y0154409D01*
X0125300Y0155608D02*
X0128049Y0155608D01*
X0129247Y0156806D02*
X0125300Y0156806D01*
X0125300Y0158005D02*
X0130446Y0158005D01*
X0125300Y0159203D02*
X0153600Y0159203D01*
X0153600Y0160402D02*
X0125300Y0160402D01*
X0125300Y0161601D02*
X0153600Y0161601D01*
X0153314Y0162799D02*
X0125300Y0162799D01*
X0125300Y0163998D02*
X0152911Y0163998D01*
X0152992Y0165196D02*
X0125300Y0165196D01*
X0125300Y0166395D02*
X0153600Y0166395D01*
X0153600Y0167593D02*
X0125300Y0167593D01*
X0125300Y0168792D02*
X0153600Y0168792D01*
X0153600Y0169990D02*
X0125300Y0169990D01*
X0125300Y0171189D02*
X0153600Y0171189D01*
X0153600Y0172387D02*
X0125300Y0172387D01*
X0125300Y0173586D02*
X0153600Y0173586D01*
X0153600Y0174784D02*
X0125300Y0174784D01*
X0125300Y0175983D02*
X0153600Y0175983D01*
X0153600Y0177181D02*
X0125300Y0177181D01*
X0125300Y0178380D02*
X0153600Y0178380D01*
X0153600Y0179578D02*
X0125300Y0179578D01*
X0125300Y0180777D02*
X0153600Y0180777D01*
X0153600Y0181975D02*
X0125300Y0181975D01*
X0125300Y0183174D02*
X0137642Y0183174D01*
X0136142Y0184372D02*
X0125300Y0184372D01*
X0125300Y0185571D02*
X0132830Y0185571D01*
X0131988Y0186769D02*
X0125300Y0186769D01*
X0125300Y0187968D02*
X0131769Y0187968D01*
X0132035Y0189166D02*
X0125300Y0189166D01*
X0125300Y0190365D02*
X0132458Y0190365D01*
X0132458Y0191563D02*
X0125300Y0191563D01*
X0125300Y0192762D02*
X0132458Y0192762D01*
X0132458Y0193960D02*
X0125300Y0193960D01*
X0125300Y0195159D02*
X0132458Y0195159D01*
X0132458Y0196357D02*
X0125300Y0196357D01*
X0125300Y0197556D02*
X0132458Y0197556D01*
X0132458Y0198754D02*
X0125300Y0198754D01*
X0126034Y0199953D02*
X0132748Y0199953D01*
X0133838Y0201151D02*
X0127232Y0201151D01*
X0128431Y0202350D02*
X0135037Y0202350D01*
X0136235Y0203548D02*
X0129630Y0203548D01*
X0130828Y0204747D02*
X0137434Y0204747D01*
X0138632Y0205945D02*
X0132027Y0205945D01*
X0134858Y0198777D02*
X0154010Y0217929D01*
X0156010Y0217929D01*
X0160733Y0217931D02*
X0176708Y0217931D01*
X0176600Y0216732D02*
X0160733Y0216732D01*
X0160733Y0215534D02*
X0176600Y0215534D01*
X0176600Y0214335D02*
X0160733Y0214335D01*
X0160733Y0213137D02*
X0177641Y0213137D01*
X0178839Y0211938D02*
X0160733Y0211938D01*
X0160733Y0210739D02*
X0221472Y0210739D01*
X0221472Y0209541D02*
X0160733Y0209541D01*
X0160733Y0208342D02*
X0221472Y0208342D01*
X0221472Y0207144D02*
X0160733Y0207144D01*
X0160733Y0205945D02*
X0221472Y0205945D01*
X0221472Y0204747D02*
X0213193Y0204747D01*
X0212740Y0205200D02*
X0215200Y0202740D01*
X0215200Y0201200D01*
X0211200Y0201200D01*
X0211200Y0200800D01*
X0215200Y0200800D01*
X0215200Y0199260D01*
X0212740Y0196800D01*
X0211200Y0196800D01*
X0211200Y0200800D01*
X0210800Y0200800D01*
X0210800Y0196800D01*
X0209260Y0196800D01*
X0206800Y0199260D01*
X0206800Y0200800D01*
X0210800Y0200800D01*
X0210800Y0201200D01*
X0210800Y0205200D01*
X0209260Y0205200D01*
X0206800Y0202740D01*
X0206800Y0201200D01*
X0210800Y0201200D01*
X0211200Y0201200D01*
X0211200Y0205200D01*
X0212740Y0205200D01*
X0211200Y0204747D02*
X0210800Y0204747D01*
X0210800Y0203548D02*
X0211200Y0203548D01*
X0211200Y0202350D02*
X0210800Y0202350D01*
X0210800Y0201151D02*
X0185400Y0201151D01*
X0185400Y0199953D02*
X0206800Y0199953D01*
X0207306Y0198754D02*
X0184977Y0198754D01*
X0185400Y0199177D02*
X0182823Y0196600D01*
X0179177Y0196600D01*
X0176600Y0199177D01*
X0176600Y0202823D01*
X0179177Y0205400D01*
X0182823Y0205400D01*
X0185400Y0202823D01*
X0185400Y0199177D01*
X0183778Y0197556D02*
X0208504Y0197556D01*
X0210800Y0197556D02*
X0211200Y0197556D01*
X0211200Y0198754D02*
X0210800Y0198754D01*
X0210800Y0199953D02*
X0211200Y0199953D01*
X0211200Y0201151D02*
X0221472Y0201151D01*
X0221472Y0199953D02*
X0215200Y0199953D01*
X0214694Y0198754D02*
X0221472Y0198754D01*
X0221472Y0197556D02*
X0213496Y0197556D01*
X0215200Y0202350D02*
X0221472Y0202350D01*
X0221472Y0203548D02*
X0214391Y0203548D01*
X0208807Y0204747D02*
X0183476Y0204747D01*
X0184674Y0203548D02*
X0207609Y0203548D01*
X0206800Y0202350D02*
X0185400Y0202350D01*
X0178524Y0204747D02*
X0160733Y0204747D01*
X0160681Y0203548D02*
X0177326Y0203548D01*
X0176600Y0202350D02*
X0158400Y0202350D01*
X0158400Y0201151D02*
X0176600Y0201151D01*
X0176600Y0199953D02*
X0158400Y0199953D01*
X0158400Y0198754D02*
X0177023Y0198754D01*
X0178222Y0197556D02*
X0158400Y0197556D01*
X0158400Y0196357D02*
X0221472Y0196357D01*
X0221472Y0195159D02*
X0158400Y0195159D01*
X0158400Y0193960D02*
X0221472Y0193960D01*
X0221472Y0192762D02*
X0158400Y0192762D01*
X0153600Y0192762D02*
X0141195Y0192762D01*
X0141195Y0193960D02*
X0153600Y0193960D01*
X0153600Y0195159D02*
X0141195Y0195159D01*
X0141195Y0196357D02*
X0153600Y0196357D01*
X0153600Y0197556D02*
X0141895Y0197556D01*
X0143093Y0198754D02*
X0153600Y0198754D01*
X0153600Y0199953D02*
X0144292Y0199953D01*
X0145490Y0201151D02*
X0153600Y0201151D01*
X0153600Y0202350D02*
X0146689Y0202350D01*
X0147887Y0203548D02*
X0151339Y0203548D01*
X0151287Y0204747D02*
X0149086Y0204747D01*
X0150284Y0205945D02*
X0151287Y0205945D01*
X0156000Y0206108D02*
X0156010Y0206118D01*
X0156000Y0206108D02*
X0156000Y0164386D01*
X0156000Y0146000D01*
X0166000Y0156000D02*
X0166000Y0181000D01*
X0168195Y0183174D02*
X0177604Y0183174D01*
X0183161Y0211938D02*
X0209122Y0211938D01*
X0209260Y0211800D02*
X0210800Y0211800D01*
X0210800Y0215800D01*
X0211200Y0215800D01*
X0211200Y0216200D01*
X0215200Y0216200D01*
X0215200Y0217740D01*
X0212740Y0220200D01*
X0211200Y0220200D01*
X0211200Y0216200D01*
X0210800Y0216200D01*
X0210800Y0220200D01*
X0209260Y0220200D01*
X0206800Y0217740D01*
X0206800Y0216200D01*
X0210800Y0216200D01*
X0210800Y0215800D01*
X0206800Y0215800D01*
X0206800Y0214260D01*
X0209260Y0211800D01*
X0210800Y0211938D02*
X0211200Y0211938D01*
X0211200Y0211800D02*
X0212740Y0211800D01*
X0215200Y0214260D01*
X0215200Y0215800D01*
X0211200Y0215800D01*
X0211200Y0211800D01*
X0211200Y0213137D02*
X0210800Y0213137D01*
X0210800Y0214335D02*
X0211200Y0214335D01*
X0211200Y0215534D02*
X0210800Y0215534D01*
X0210800Y0216732D02*
X0211200Y0216732D01*
X0211200Y0217931D02*
X0210800Y0217931D01*
X0210800Y0219129D02*
X0211200Y0219129D01*
X0213811Y0219129D02*
X0221472Y0219129D01*
X0221472Y0217931D02*
X0215009Y0217931D01*
X0215200Y0216732D02*
X0221472Y0216732D01*
X0221472Y0215534D02*
X0215200Y0215534D01*
X0215200Y0214335D02*
X0221472Y0214335D01*
X0221472Y0213137D02*
X0214076Y0213137D01*
X0212878Y0211938D02*
X0221472Y0211938D01*
X0221472Y0220328D02*
X0183400Y0220328D01*
X0183400Y0221526D02*
X0221472Y0221526D01*
X0221472Y0222725D02*
X0183400Y0222725D01*
X0183400Y0223923D02*
X0221472Y0223923D01*
X0221472Y0225122D02*
X0183400Y0225122D01*
X0183400Y0226320D02*
X0221472Y0226320D01*
X0221472Y0227519D02*
X0183400Y0227519D01*
X0183400Y0228717D02*
X0221472Y0228717D01*
X0221472Y0229916D02*
X0183400Y0229916D01*
X0183322Y0231114D02*
X0221472Y0231114D01*
X0221472Y0232313D02*
X0182530Y0232313D01*
X0181332Y0233511D02*
X0221472Y0233511D01*
X0221472Y0234710D02*
X0180133Y0234710D01*
X0178935Y0235908D02*
X0221472Y0235908D01*
X0221472Y0237107D02*
X0177736Y0237107D01*
X0175803Y0235646D02*
X0181000Y0230449D01*
X0181000Y0216000D01*
X0177907Y0219129D02*
X0160733Y0219129D01*
X0160733Y0220328D02*
X0178600Y0220328D01*
X0178600Y0221526D02*
X0160733Y0221526D01*
X0160733Y0222725D02*
X0178600Y0222725D01*
X0178600Y0223923D02*
X0160733Y0223923D01*
X0160733Y0225122D02*
X0178600Y0225122D01*
X0178600Y0226320D02*
X0160733Y0226320D01*
X0160733Y0227519D02*
X0178600Y0227519D01*
X0178600Y0228717D02*
X0160733Y0228717D01*
X0160733Y0229916D02*
X0178139Y0229916D01*
X0176941Y0231114D02*
X0160733Y0231114D01*
X0160678Y0232313D02*
X0175742Y0232313D01*
X0175803Y0235646D02*
X0156010Y0235646D01*
X0160591Y0238305D02*
X0208413Y0238305D01*
X0209389Y0237901D02*
X0212611Y0237901D01*
X0215588Y0239134D01*
X0217866Y0241412D01*
X0219099Y0244389D01*
X0219099Y0247611D01*
X0217866Y0250588D01*
X0215588Y0252866D01*
X0212611Y0254099D01*
X0209389Y0254099D01*
X0206412Y0252866D01*
X0204134Y0250588D01*
X0202901Y0247611D01*
X0202901Y0244389D01*
X0204134Y0241412D01*
X0206412Y0239134D01*
X0209389Y0237901D01*
X0206042Y0239504D02*
X0160733Y0239504D01*
X0160733Y0240702D02*
X0204844Y0240702D01*
X0203931Y0241901D02*
X0160733Y0241901D01*
X0160733Y0243099D02*
X0203435Y0243099D01*
X0202939Y0244298D02*
X0160504Y0244298D01*
X0160733Y0245496D02*
X0202901Y0245496D01*
X0202901Y0246695D02*
X0160733Y0246695D01*
X0160733Y0247893D02*
X0203018Y0247893D01*
X0203514Y0249092D02*
X0160733Y0249092D01*
X0160417Y0250290D02*
X0204011Y0250290D01*
X0205035Y0251489D02*
X0160733Y0251489D01*
X0160733Y0252687D02*
X0206233Y0252687D01*
X0208874Y0253886D02*
X0160733Y0253886D01*
X0160733Y0255084D02*
X0221472Y0255084D01*
X0221472Y0253886D02*
X0213126Y0253886D01*
X0215767Y0252687D02*
X0221472Y0252687D01*
X0221472Y0251489D02*
X0216965Y0251489D01*
X0217989Y0250290D02*
X0221472Y0250290D01*
X0221472Y0249092D02*
X0218486Y0249092D01*
X0218982Y0247893D02*
X0221472Y0247893D01*
X0221472Y0246695D02*
X0219099Y0246695D01*
X0219099Y0245496D02*
X0221472Y0245496D01*
X0221472Y0244298D02*
X0219061Y0244298D01*
X0218565Y0243099D02*
X0221472Y0243099D01*
X0221472Y0241901D02*
X0218069Y0241901D01*
X0217156Y0240702D02*
X0221472Y0240702D01*
X0221472Y0239504D02*
X0215958Y0239504D01*
X0213587Y0238305D02*
X0221472Y0238305D01*
X0221472Y0256283D02*
X0160330Y0256283D01*
X0145202Y0256283D02*
X0090027Y0256283D01*
X0089896Y0256414D02*
X0090194Y0256116D01*
X0090404Y0255751D01*
X0090513Y0255345D01*
X0090513Y0253648D01*
X0086276Y0253648D01*
X0086276Y0253076D01*
X0090513Y0253076D01*
X0090513Y0251380D01*
X0090404Y0250973D01*
X0090194Y0250608D01*
X0090136Y0250551D01*
X0090713Y0249974D01*
X0090713Y0244939D01*
X0090278Y0244504D01*
X0090713Y0244068D01*
X0090713Y0239034D01*
X0090278Y0238598D01*
X0090713Y0238163D01*
X0090713Y0233128D01*
X0090278Y0232693D01*
X0090713Y0232257D01*
X0090713Y0230880D01*
X0091025Y0230874D01*
X0091477Y0230874D01*
X0091501Y0230864D01*
X0091526Y0230864D01*
X0091941Y0230682D01*
X0092359Y0230509D01*
X0092378Y0230491D01*
X0092401Y0230480D01*
X0092714Y0230154D01*
X0093035Y0229834D01*
X0093044Y0229810D01*
X0093062Y0229792D01*
X0093227Y0229370D01*
X0093400Y0228951D01*
X0093400Y0228926D01*
X0093409Y0228902D01*
X0093400Y0228449D01*
X0093400Y0158317D01*
X0093543Y0158173D01*
X0094000Y0157071D01*
X0094000Y0155877D01*
X0093543Y0154775D01*
X0092699Y0153931D01*
X0091597Y0153474D01*
X0090403Y0153474D01*
X0089301Y0153931D01*
X0088457Y0154775D01*
X0088000Y0155877D01*
X0088000Y0157071D01*
X0088457Y0158173D01*
X0088600Y0158317D01*
X0088600Y0167356D01*
X0088229Y0167202D01*
X0087000Y0167202D01*
X0086601Y0167368D01*
X0086766Y0166969D01*
X0086766Y0165740D01*
X0086296Y0164605D01*
X0085427Y0163736D01*
X0084292Y0163265D01*
X0083982Y0163265D01*
X0076117Y0155400D01*
X0077823Y0155400D01*
X0080400Y0152823D01*
X0080400Y0149177D01*
X0077823Y0146600D01*
X0074177Y0146600D01*
X0071600Y0149177D01*
X0071600Y0150883D01*
X0070329Y0149612D01*
X0070329Y0122570D01*
X0069964Y0121688D01*
X0069289Y0121013D01*
X0066027Y0117751D01*
X0065352Y0117076D01*
X0064470Y0116710D01*
X0063563Y0116710D01*
X0066850Y0113423D01*
X0066850Y0111400D01*
X0061400Y0111400D01*
X0061400Y0110600D01*
X0066850Y0110600D01*
X0066850Y0108577D01*
X0063423Y0105150D01*
X0061400Y0105150D01*
X0061400Y0110600D01*
X0060600Y0110600D01*
X0060600Y0105150D01*
X0058577Y0105150D01*
X0055150Y0108577D01*
X0055150Y0110600D01*
X0060600Y0110600D01*
X0060600Y0111400D01*
X0055150Y0111400D01*
X0055150Y0113423D01*
X0058437Y0116710D01*
X0053175Y0116710D01*
X0040430Y0103965D01*
X0039548Y0103600D01*
X0038201Y0103600D01*
X0038069Y0103281D01*
X0036719Y0101931D01*
X0034955Y0101200D01*
X0027045Y0101200D01*
X0025281Y0101931D01*
X0023931Y0103281D01*
X0023200Y0105045D01*
X0023200Y0106955D01*
X0023931Y0108719D01*
X0025281Y0110069D01*
X0027045Y0110800D01*
X0034955Y0110800D01*
X0036719Y0110069D01*
X0038069Y0108719D01*
X0038165Y0108488D01*
X0043277Y0113600D01*
X0038201Y0113600D01*
X0038069Y0113281D01*
X0036719Y0111931D01*
X0034955Y0111200D01*
X0027045Y0111200D01*
X0025281Y0111931D01*
X0023931Y0113281D01*
X0023200Y0115045D01*
X0023200Y0116955D01*
X0023931Y0118719D01*
X0025281Y0120069D01*
X0027045Y0120800D01*
X0034955Y0120800D01*
X0036719Y0120069D01*
X0038069Y0118719D01*
X0038201Y0118400D01*
X0044140Y0118400D01*
X0048609Y0122870D01*
X0049285Y0123545D01*
X0050167Y0123910D01*
X0061461Y0123910D01*
X0063129Y0125578D01*
X0063129Y0153052D01*
X0063495Y0153934D01*
X0081886Y0172326D01*
X0082768Y0172691D01*
X0085646Y0172691D01*
X0085864Y0172910D01*
X0087000Y0173380D01*
X0088229Y0173380D01*
X0088600Y0173226D01*
X0088600Y0202546D01*
X0088500Y0202546D01*
X0088426Y0202473D01*
X0086845Y0201818D01*
X0053927Y0201818D01*
X0052763Y0202300D01*
X0049845Y0202300D01*
X0048081Y0203031D01*
X0046731Y0204381D01*
X0046000Y0206145D01*
X0046000Y0207606D01*
X0043400Y0205006D01*
X0043400Y0189200D01*
X0048638Y0189200D01*
X0049845Y0189700D01*
X0057755Y0189700D01*
X0059519Y0188969D01*
X0060869Y0187619D01*
X0061600Y0185855D01*
X0061600Y0183945D01*
X0060869Y0182181D01*
X0059519Y0180831D01*
X0057755Y0180100D01*
X0049845Y0180100D01*
X0048638Y0180600D01*
X0043400Y0180600D01*
X0043400Y0155523D01*
X0043035Y0154641D01*
X0042359Y0153965D01*
X0030400Y0142006D01*
X0030400Y0139177D01*
X0027823Y0136600D01*
X0024177Y0136600D01*
X0021600Y0139177D01*
X0021600Y0142823D01*
X0024177Y0145400D01*
X0027006Y0145400D01*
X0038600Y0156994D01*
X0038600Y0180600D01*
X0033362Y0180600D01*
X0032155Y0180100D01*
X0024245Y0180100D01*
X0022481Y0180831D01*
X0021131Y0182181D01*
X0020400Y0183945D01*
X0020400Y0185855D01*
X0021131Y0187619D01*
X0022481Y0188969D01*
X0024245Y0189700D01*
X0032155Y0189700D01*
X0033362Y0189200D01*
X0038600Y0189200D01*
X0038600Y0206477D01*
X0038965Y0207359D01*
X0039641Y0208035D01*
X0045664Y0214058D01*
X0046546Y0214424D01*
X0063309Y0214424D01*
X0062911Y0215386D01*
X0062911Y0216614D01*
X0063381Y0217750D01*
X0063600Y0217968D01*
X0063600Y0221477D01*
X0063965Y0222359D01*
X0064641Y0223035D01*
X0065664Y0224058D01*
X0065301Y0224058D01*
X0064166Y0224529D01*
X0063297Y0225397D01*
X0062827Y0226533D01*
X0062827Y0227762D01*
X0063297Y0228897D01*
X0063516Y0229116D01*
X0063516Y0246393D01*
X0063881Y0247275D01*
X0066097Y0249491D01*
X0066979Y0249857D01*
X0081267Y0249857D01*
X0081267Y0249974D01*
X0081844Y0250551D01*
X0081787Y0250608D01*
X0081576Y0250973D01*
X0081467Y0251380D01*
X0081467Y0253076D01*
X0085704Y0253076D01*
X0085704Y0253648D01*
X0081467Y0253648D01*
X0081467Y0255345D01*
X0081576Y0255751D01*
X0081787Y0256116D01*
X0082084Y0256414D01*
X0082449Y0256625D01*
X0082856Y0256734D01*
X0085704Y0256734D01*
X0085704Y0253648D01*
X0086276Y0253648D01*
X0086276Y0256734D01*
X0089124Y0256734D01*
X0089531Y0256625D01*
X0089896Y0256414D01*
X0090513Y0255084D02*
X0144003Y0255084D01*
X0142805Y0253886D02*
X0090513Y0253886D01*
X0090513Y0252687D02*
X0142045Y0252687D01*
X0141700Y0251489D02*
X0090513Y0251489D01*
X0090397Y0250290D02*
X0141700Y0250290D01*
X0141700Y0249092D02*
X0090713Y0249092D01*
X0090713Y0247893D02*
X0141700Y0247893D01*
X0141700Y0246695D02*
X0113278Y0246695D01*
X0114112Y0245496D02*
X0141700Y0245496D01*
X0141700Y0244298D02*
X0114325Y0244298D01*
X0114054Y0243099D02*
X0141700Y0243099D01*
X0141700Y0241901D02*
X0113636Y0241901D01*
X0113636Y0240702D02*
X0141700Y0240702D01*
X0141700Y0239504D02*
X0113636Y0239504D01*
X0113636Y0238305D02*
X0115636Y0238305D01*
X0115400Y0237107D02*
X0113636Y0237107D01*
X0113636Y0235908D02*
X0115400Y0235908D01*
X0115400Y0234710D02*
X0113636Y0234710D01*
X0113636Y0233511D02*
X0115400Y0233511D01*
X0115400Y0232313D02*
X0113636Y0232313D01*
X0113636Y0231114D02*
X0115400Y0231114D01*
X0115400Y0229916D02*
X0113636Y0229916D01*
X0113636Y0228717D02*
X0115400Y0228717D01*
X0115400Y0227519D02*
X0113636Y0227519D01*
X0113636Y0226320D02*
X0115400Y0226320D01*
X0115400Y0225122D02*
X0113636Y0225122D01*
X0113636Y0223923D02*
X0115400Y0223923D01*
X0115400Y0222725D02*
X0113636Y0222725D01*
X0113636Y0221526D02*
X0115400Y0221526D01*
X0115400Y0220328D02*
X0113636Y0220328D01*
X0113636Y0219129D02*
X0115400Y0219129D01*
X0115400Y0217931D02*
X0113636Y0217931D01*
X0113636Y0216732D02*
X0115400Y0216732D01*
X0115400Y0215534D02*
X0113636Y0215534D01*
X0113636Y0214335D02*
X0128254Y0214335D01*
X0127055Y0213137D02*
X0113636Y0213137D01*
X0113636Y0211938D02*
X0125857Y0211938D01*
X0124658Y0210739D02*
X0113636Y0210739D01*
X0113636Y0209541D02*
X0123460Y0209541D01*
X0122261Y0208342D02*
X0113636Y0208342D01*
X0113636Y0207144D02*
X0121063Y0207144D01*
X0119864Y0205945D02*
X0113636Y0205945D01*
X0113636Y0204747D02*
X0118666Y0204747D01*
X0118564Y0204645D02*
X0118564Y0204645D01*
X0117467Y0203548D02*
X0113636Y0203548D01*
X0113636Y0202350D02*
X0116905Y0202350D01*
X0116700Y0201151D02*
X0113636Y0201151D01*
X0113636Y0199953D02*
X0116700Y0199953D01*
X0116700Y0198754D02*
X0113636Y0198754D01*
X0113636Y0197556D02*
X0116700Y0197556D01*
X0116700Y0196357D02*
X0113636Y0196357D01*
X0113636Y0195159D02*
X0116700Y0195159D01*
X0116700Y0193960D02*
X0113636Y0193960D01*
X0113636Y0192762D02*
X0116700Y0192762D01*
X0116700Y0191563D02*
X0113636Y0191563D01*
X0113636Y0190365D02*
X0116700Y0190365D01*
X0116700Y0189166D02*
X0113274Y0189166D01*
X0112079Y0187968D02*
X0116700Y0187968D01*
X0116700Y0186769D02*
X0110880Y0186769D01*
X0109682Y0185571D02*
X0116700Y0185571D01*
X0116700Y0184372D02*
X0108594Y0184372D01*
X0108594Y0183174D02*
X0116700Y0183174D01*
X0116700Y0181975D02*
X0108594Y0181975D01*
X0108594Y0180777D02*
X0116700Y0180777D01*
X0116700Y0179578D02*
X0108594Y0179578D01*
X0108594Y0178380D02*
X0116700Y0178380D01*
X0116700Y0177181D02*
X0108594Y0177181D01*
X0108594Y0175983D02*
X0116700Y0175983D01*
X0116700Y0174784D02*
X0108594Y0174784D01*
X0108594Y0173586D02*
X0116700Y0173586D01*
X0116700Y0172387D02*
X0108594Y0172387D01*
X0108594Y0171189D02*
X0116700Y0171189D01*
X0116700Y0169990D02*
X0108594Y0169990D01*
X0108594Y0168792D02*
X0116700Y0168792D01*
X0116700Y0167593D02*
X0108594Y0167593D01*
X0108594Y0166395D02*
X0116700Y0166395D01*
X0116700Y0165196D02*
X0108594Y0165196D01*
X0108594Y0163998D02*
X0116700Y0163998D01*
X0116700Y0162799D02*
X0108594Y0162799D01*
X0108594Y0161601D02*
X0116700Y0161601D01*
X0116700Y0160402D02*
X0108594Y0160402D01*
X0108594Y0159203D02*
X0116700Y0159203D01*
X0116700Y0158005D02*
X0108594Y0158005D01*
X0108594Y0156806D02*
X0116700Y0156806D01*
X0116700Y0155608D02*
X0108594Y0155608D01*
X0108594Y0154409D02*
X0116700Y0154409D01*
X0116700Y0153211D02*
X0108594Y0153211D01*
X0108594Y0152012D02*
X0116700Y0152012D01*
X0116700Y0150814D02*
X0108594Y0150814D01*
X0108594Y0149615D02*
X0116700Y0149615D01*
X0116700Y0148417D02*
X0108594Y0148417D01*
X0108594Y0147218D02*
X0116700Y0147218D01*
X0116700Y0146020D02*
X0108594Y0146020D01*
X0108594Y0144821D02*
X0116700Y0144821D01*
X0116700Y0143623D02*
X0108594Y0143623D01*
X0108594Y0142424D02*
X0116700Y0142424D01*
X0116700Y0141226D02*
X0108594Y0141226D01*
X0108594Y0140027D02*
X0116700Y0140027D01*
X0116700Y0138829D02*
X0108594Y0138829D01*
X0108594Y0137630D02*
X0110187Y0137630D01*
X0108989Y0136432D02*
X0108594Y0136432D01*
X0108594Y0131638D02*
X0109297Y0131638D01*
X0108594Y0130439D02*
X0110496Y0130439D01*
X0108594Y0129241D02*
X0116700Y0129241D01*
X0116700Y0130439D02*
X0115441Y0130439D01*
X0116640Y0131638D02*
X0116700Y0131638D01*
X0116700Y0128042D02*
X0108594Y0128042D01*
X0108594Y0126844D02*
X0116700Y0126844D01*
X0116700Y0125645D02*
X0108594Y0125645D01*
X0108564Y0124447D02*
X0116700Y0124447D01*
X0116700Y0123248D02*
X0107840Y0123248D01*
X0106641Y0122050D02*
X0115969Y0122050D01*
X0114770Y0120851D02*
X0105443Y0120851D01*
X0104244Y0119653D02*
X0113572Y0119653D01*
X0112373Y0118454D02*
X0103046Y0118454D01*
X0101847Y0117256D02*
X0111174Y0117256D01*
X0109976Y0116057D02*
X0101825Y0116057D01*
X0101825Y0114859D02*
X0109097Y0114859D01*
X0108669Y0113660D02*
X0101825Y0113660D01*
X0101825Y0112462D02*
X0108669Y0112462D01*
X0108669Y0111263D02*
X0101825Y0111263D01*
X0101825Y0110065D02*
X0108669Y0110065D01*
X0108669Y0108866D02*
X0101825Y0108866D01*
X0101825Y0107668D02*
X0108669Y0107668D01*
X0108669Y0106469D02*
X0101825Y0106469D01*
X0101825Y0105270D02*
X0108569Y0105270D01*
X0108569Y0104072D02*
X0101825Y0104072D01*
X0101825Y0102873D02*
X0108569Y0102873D01*
X0109260Y0101675D02*
X0101825Y0101675D01*
X0101825Y0100476D02*
X0110459Y0100476D01*
X0110697Y0095400D02*
X0107051Y0095400D01*
X0104474Y0092823D01*
X0104474Y0089177D01*
X0107051Y0086600D01*
X0110697Y0086600D01*
X0113274Y0089177D01*
X0113274Y0092823D01*
X0110697Y0095400D01*
X0111613Y0094484D02*
X0121135Y0094484D01*
X0119937Y0093285D02*
X0112811Y0093285D01*
X0113274Y0092087D02*
X0119474Y0092087D01*
X0119474Y0090888D02*
X0113274Y0090888D01*
X0113274Y0089690D02*
X0119474Y0089690D01*
X0120160Y0088491D02*
X0112588Y0088491D01*
X0111389Y0087293D02*
X0121359Y0087293D01*
X0124380Y0082499D02*
X0101825Y0082499D01*
X0101825Y0083697D02*
X0125579Y0083697D01*
X0126553Y0084896D02*
X0101825Y0084896D01*
X0101825Y0086094D02*
X0126553Y0086094D01*
X0126553Y0087293D02*
X0126389Y0087293D01*
X0123182Y0081300D02*
X0101825Y0081300D01*
X0101825Y0080102D02*
X0121983Y0080102D01*
X0120785Y0078903D02*
X0101825Y0078903D01*
X0101825Y0077705D02*
X0119586Y0077705D01*
X0118388Y0076506D02*
X0101825Y0076506D01*
X0101825Y0075308D02*
X0117189Y0075308D01*
X0115991Y0074109D02*
X0101825Y0074109D01*
X0101825Y0072911D02*
X0114792Y0072911D01*
X0114065Y0071712D02*
X0101825Y0071712D01*
X0101825Y0070514D02*
X0114033Y0070514D01*
X0114033Y0069315D02*
X0101825Y0069315D01*
X0101825Y0068117D02*
X0114033Y0068117D01*
X0114033Y0066918D02*
X0101825Y0066918D01*
X0101825Y0065720D02*
X0114033Y0065720D01*
X0114033Y0064521D02*
X0111575Y0064521D01*
X0110697Y0065400D02*
X0113274Y0062823D01*
X0113274Y0059177D01*
X0110697Y0056600D01*
X0107051Y0056600D01*
X0104474Y0059177D01*
X0104474Y0062823D01*
X0107051Y0065400D01*
X0110697Y0065400D01*
X0112774Y0063323D02*
X0114033Y0063323D01*
X0114033Y0062124D02*
X0113274Y0062124D01*
X0113274Y0060926D02*
X0114033Y0060926D01*
X0114033Y0059727D02*
X0113274Y0059727D01*
X0112625Y0058529D02*
X0114033Y0058529D01*
X0114033Y0057330D02*
X0111427Y0057330D01*
X0114033Y0056132D02*
X0100864Y0056132D01*
X0101710Y0057330D02*
X0106321Y0057330D01*
X0105123Y0058529D02*
X0101825Y0058529D01*
X0101825Y0059727D02*
X0104474Y0059727D01*
X0104474Y0060926D02*
X0101825Y0060926D01*
X0101825Y0062124D02*
X0104474Y0062124D01*
X0104974Y0063323D02*
X0101825Y0063323D01*
X0101825Y0064521D02*
X0106173Y0064521D01*
X0099425Y0058087D02*
X0093520Y0052181D01*
X0089583Y0052181D01*
X0086433Y0049031D01*
X0086433Y0036000D01*
X0089303Y0039352D02*
X0093563Y0039352D01*
X0094611Y0040400D02*
X0092033Y0037823D01*
X0092033Y0034177D01*
X0094611Y0031600D01*
X0098256Y0031600D01*
X0100833Y0034177D01*
X0100833Y0037823D01*
X0098256Y0040400D01*
X0094611Y0040400D01*
X0092364Y0038154D02*
X0090502Y0038154D01*
X0090833Y0036955D02*
X0092033Y0036955D01*
X0092033Y0035757D02*
X0090833Y0035757D01*
X0090833Y0034558D02*
X0092033Y0034558D01*
X0092851Y0033360D02*
X0090015Y0033360D01*
X0088817Y0032161D02*
X0094049Y0032161D01*
X0098817Y0032161D02*
X0114049Y0032161D01*
X0112851Y0033360D02*
X0100015Y0033360D01*
X0100833Y0034558D02*
X0112033Y0034558D01*
X0112033Y0035757D02*
X0100833Y0035757D01*
X0100833Y0036955D02*
X0112033Y0036955D01*
X0112364Y0038154D02*
X0100502Y0038154D01*
X0099303Y0039352D02*
X0113563Y0039352D01*
X0114033Y0040551D02*
X0088833Y0040551D01*
X0088833Y0041749D02*
X0114033Y0041749D01*
X0114033Y0042948D02*
X0088833Y0042948D01*
X0088833Y0044146D02*
X0114033Y0044146D01*
X0114033Y0045345D02*
X0088833Y0045345D01*
X0088833Y0046543D02*
X0114033Y0046543D01*
X0114033Y0047742D02*
X0088833Y0047742D01*
X0089736Y0048940D02*
X0114033Y0048940D01*
X0114033Y0050139D02*
X0094861Y0050139D01*
X0096070Y0051337D02*
X0114033Y0051337D01*
X0114033Y0052536D02*
X0097269Y0052536D01*
X0098467Y0053734D02*
X0114033Y0053734D01*
X0114033Y0054933D02*
X0099666Y0054933D01*
X0099425Y0058087D02*
X0099425Y0118228D01*
X0106194Y0124996D01*
X0106194Y0185477D01*
X0111236Y0190519D01*
X0111236Y0244368D01*
X0109195Y0246695D02*
X0090713Y0246695D01*
X0090713Y0245496D02*
X0108360Y0245496D01*
X0108147Y0244298D02*
X0090484Y0244298D01*
X0090713Y0243099D02*
X0108418Y0243099D01*
X0108836Y0241901D02*
X0090713Y0241901D01*
X0090713Y0240702D02*
X0108836Y0240702D01*
X0108836Y0239504D02*
X0090713Y0239504D01*
X0090571Y0238305D02*
X0108836Y0238305D01*
X0108836Y0237107D02*
X0090713Y0237107D01*
X0090713Y0235908D02*
X0108836Y0235908D01*
X0108836Y0234710D02*
X0090713Y0234710D01*
X0090713Y0233511D02*
X0108836Y0233511D01*
X0108836Y0232313D02*
X0090658Y0232313D01*
X0090713Y0231114D02*
X0108836Y0231114D01*
X0108836Y0229916D02*
X0092952Y0229916D01*
X0093405Y0228717D02*
X0108836Y0228717D01*
X0108836Y0227519D02*
X0093400Y0227519D01*
X0093400Y0226320D02*
X0108836Y0226320D01*
X0108836Y0225122D02*
X0093400Y0225122D01*
X0093400Y0223923D02*
X0108836Y0223923D01*
X0108836Y0222725D02*
X0093400Y0222725D01*
X0093400Y0221526D02*
X0108836Y0221526D01*
X0108836Y0220328D02*
X0093400Y0220328D01*
X0093400Y0219129D02*
X0108836Y0219129D01*
X0108836Y0217931D02*
X0093400Y0217931D01*
X0093400Y0216732D02*
X0108836Y0216732D01*
X0108836Y0215534D02*
X0093400Y0215534D01*
X0093400Y0214335D02*
X0108836Y0214335D01*
X0108836Y0213137D02*
X0093400Y0213137D01*
X0093400Y0211938D02*
X0108836Y0211938D01*
X0108836Y0210739D02*
X0093400Y0210739D01*
X0093400Y0209541D02*
X0108836Y0209541D01*
X0108836Y0208342D02*
X0093400Y0208342D01*
X0093400Y0207144D02*
X0108836Y0207144D01*
X0108836Y0205945D02*
X0093400Y0205945D01*
X0093400Y0204747D02*
X0108836Y0204747D01*
X0108836Y0203548D02*
X0093400Y0203548D01*
X0093400Y0202350D02*
X0108836Y0202350D01*
X0108836Y0201151D02*
X0093400Y0201151D01*
X0093400Y0199953D02*
X0108836Y0199953D01*
X0108836Y0198754D02*
X0093400Y0198754D01*
X0093400Y0197556D02*
X0108836Y0197556D01*
X0107299Y0194089D02*
X0107299Y0189976D01*
X0103794Y0186471D01*
X0103794Y0125990D01*
X0072298Y0094494D01*
X0072298Y0078746D01*
X0066955Y0073403D01*
X0060055Y0073403D01*
X0056433Y0069781D01*
X0056433Y0036000D01*
X0053563Y0039352D02*
X0037256Y0039352D01*
X0036208Y0040400D02*
X0038786Y0037823D01*
X0038786Y0034177D01*
X0036208Y0031600D01*
X0032563Y0031600D01*
X0029986Y0034177D01*
X0029986Y0037823D01*
X0032563Y0040400D01*
X0036208Y0040400D01*
X0038454Y0038154D02*
X0052364Y0038154D01*
X0052033Y0036955D02*
X0038786Y0036955D01*
X0038786Y0035757D02*
X0052033Y0035757D01*
X0052033Y0034558D02*
X0038786Y0034558D01*
X0037968Y0033360D02*
X0052851Y0033360D01*
X0054049Y0032161D02*
X0036770Y0032161D01*
X0032002Y0032161D02*
X0026770Y0032161D01*
X0027968Y0033360D02*
X0030803Y0033360D01*
X0029986Y0034558D02*
X0028786Y0034558D01*
X0028786Y0035757D02*
X0029986Y0035757D01*
X0029986Y0036955D02*
X0028786Y0036955D01*
X0028454Y0038154D02*
X0030317Y0038154D01*
X0031516Y0039352D02*
X0027256Y0039352D01*
X0026786Y0040551D02*
X0054033Y0040551D01*
X0054033Y0041749D02*
X0026786Y0041749D01*
X0026786Y0042948D02*
X0054033Y0042948D01*
X0054033Y0044146D02*
X0026786Y0044146D01*
X0026786Y0045345D02*
X0054033Y0045345D01*
X0054033Y0046543D02*
X0026786Y0046543D01*
X0026786Y0047742D02*
X0054033Y0047742D01*
X0054033Y0048940D02*
X0026786Y0048940D01*
X0026786Y0050139D02*
X0054033Y0050139D01*
X0054033Y0051337D02*
X0026786Y0051337D01*
X0026786Y0052536D02*
X0054033Y0052536D01*
X0054033Y0053734D02*
X0026786Y0053734D01*
X0026786Y0054933D02*
X0054033Y0054933D01*
X0054033Y0056132D02*
X0026786Y0056132D01*
X0026786Y0057330D02*
X0054033Y0057330D01*
X0054033Y0058529D02*
X0026786Y0058529D01*
X0026786Y0059727D02*
X0054033Y0059727D01*
X0054033Y0060926D02*
X0026786Y0060926D01*
X0026786Y0062124D02*
X0054033Y0062124D01*
X0054033Y0063323D02*
X0026786Y0063323D01*
X0026786Y0064521D02*
X0054033Y0064521D01*
X0054033Y0065720D02*
X0026786Y0065720D01*
X0026786Y0066918D02*
X0054033Y0066918D01*
X0054033Y0068117D02*
X0026786Y0068117D01*
X0026786Y0069315D02*
X0054033Y0069315D01*
X0054139Y0070514D02*
X0026786Y0070514D01*
X0027862Y0071712D02*
X0054970Y0071712D01*
X0056169Y0072911D02*
X0029061Y0072911D01*
X0028559Y0075803D02*
X0024386Y0071630D01*
X0024386Y0036000D01*
X0021516Y0039352D02*
X0004937Y0039352D01*
X0004937Y0038154D02*
X0020317Y0038154D01*
X0019986Y0036955D02*
X0004937Y0036955D01*
X0004937Y0035757D02*
X0019986Y0035757D01*
X0019986Y0034558D02*
X0004937Y0034558D01*
X0004937Y0033360D02*
X0020803Y0033360D01*
X0022002Y0032161D02*
X0004937Y0032161D01*
X0004937Y0030963D02*
X0134858Y0030963D01*
X0134858Y0032161D02*
X0128817Y0032161D01*
X0128256Y0031600D02*
X0124611Y0031600D01*
X0122033Y0034177D01*
X0122033Y0037823D01*
X0124611Y0040400D01*
X0128256Y0040400D01*
X0130833Y0037823D01*
X0130833Y0034177D01*
X0128256Y0031600D01*
X0130015Y0033360D02*
X0134858Y0033360D01*
X0134858Y0034558D02*
X0130833Y0034558D01*
X0130833Y0035757D02*
X0134858Y0035757D01*
X0134858Y0036955D02*
X0130833Y0036955D01*
X0130502Y0038154D02*
X0134858Y0038154D01*
X0134858Y0039352D02*
X0129303Y0039352D01*
X0134858Y0040551D02*
X0118833Y0040551D01*
X0118833Y0041749D02*
X0134858Y0041749D01*
X0134858Y0042948D02*
X0118833Y0042948D01*
X0118833Y0044146D02*
X0134858Y0044146D01*
X0134858Y0045345D02*
X0118833Y0045345D01*
X0118833Y0046543D02*
X0134858Y0046543D01*
X0134858Y0047742D02*
X0118833Y0047742D01*
X0118833Y0048940D02*
X0134858Y0048940D01*
X0134858Y0050139D02*
X0118833Y0050139D01*
X0118833Y0051337D02*
X0134858Y0051337D01*
X0134858Y0052536D02*
X0118833Y0052536D01*
X0118833Y0053734D02*
X0134858Y0053734D01*
X0134858Y0054933D02*
X0118833Y0054933D01*
X0119303Y0039352D02*
X0123563Y0039352D01*
X0122364Y0038154D02*
X0120502Y0038154D01*
X0120833Y0036955D02*
X0122033Y0036955D01*
X0122033Y0035757D02*
X0120833Y0035757D01*
X0120833Y0034558D02*
X0122033Y0034558D01*
X0122851Y0033360D02*
X0120015Y0033360D01*
X0118817Y0032161D02*
X0124049Y0032161D01*
X0116433Y0036000D02*
X0116433Y0071157D01*
X0106359Y0087293D02*
X0101825Y0087293D01*
X0101825Y0088491D02*
X0105160Y0088491D01*
X0104474Y0089690D02*
X0101825Y0089690D01*
X0101825Y0090888D02*
X0104474Y0090888D01*
X0104474Y0092087D02*
X0101825Y0092087D01*
X0101825Y0093285D02*
X0104937Y0093285D01*
X0106135Y0094484D02*
X0101825Y0094484D01*
X0101825Y0095682D02*
X0123396Y0095682D01*
X0122656Y0096881D02*
X0101825Y0096881D01*
X0101825Y0098079D02*
X0122230Y0098079D01*
X0121927Y0099278D02*
X0101825Y0099278D01*
X0097025Y0099278D02*
X0080476Y0099278D01*
X0081674Y0100476D02*
X0097025Y0100476D01*
X0097025Y0101675D02*
X0082873Y0101675D01*
X0084071Y0102873D02*
X0097025Y0102873D01*
X0097025Y0104072D02*
X0085270Y0104072D01*
X0086468Y0105270D02*
X0097025Y0105270D01*
X0097025Y0106469D02*
X0087667Y0106469D01*
X0088865Y0107668D02*
X0097025Y0107668D01*
X0097025Y0108866D02*
X0090064Y0108866D01*
X0091262Y0110065D02*
X0097025Y0110065D01*
X0097025Y0111263D02*
X0092461Y0111263D01*
X0093659Y0112462D02*
X0097025Y0112462D01*
X0097025Y0113660D02*
X0094858Y0113660D01*
X0096056Y0114859D02*
X0097025Y0114859D01*
X0091866Y0120851D02*
X0069127Y0120851D01*
X0070114Y0122050D02*
X0093065Y0122050D01*
X0094263Y0123248D02*
X0070329Y0123248D01*
X0070329Y0124447D02*
X0095462Y0124447D01*
X0096661Y0125645D02*
X0070329Y0125645D01*
X0070329Y0126844D02*
X0073934Y0126844D01*
X0074177Y0126600D02*
X0077823Y0126600D01*
X0080400Y0129177D01*
X0080400Y0132823D01*
X0077823Y0135400D01*
X0074177Y0135400D01*
X0071600Y0132823D01*
X0071600Y0129177D01*
X0074177Y0126600D01*
X0072735Y0128042D02*
X0070329Y0128042D01*
X0070329Y0129241D02*
X0071600Y0129241D01*
X0071600Y0130439D02*
X0070329Y0130439D01*
X0070329Y0131638D02*
X0071600Y0131638D01*
X0071614Y0132836D02*
X0070329Y0132836D01*
X0070329Y0134035D02*
X0072812Y0134035D01*
X0074011Y0135233D02*
X0070329Y0135233D01*
X0070329Y0136432D02*
X0098994Y0136432D01*
X0098994Y0137630D02*
X0070329Y0137630D01*
X0070329Y0138829D02*
X0098994Y0138829D01*
X0098994Y0140027D02*
X0070329Y0140027D01*
X0070329Y0141226D02*
X0098994Y0141226D01*
X0098994Y0142424D02*
X0070329Y0142424D01*
X0070329Y0143623D02*
X0098994Y0143623D01*
X0098994Y0144821D02*
X0070329Y0144821D01*
X0070329Y0146020D02*
X0098994Y0146020D01*
X0098994Y0147218D02*
X0098158Y0147218D01*
X0096200Y0147218D02*
X0095800Y0147218D01*
X0095800Y0146800D02*
X0095800Y0150800D01*
X0091800Y0150800D01*
X0091800Y0149260D01*
X0094260Y0146800D01*
X0095800Y0146800D01*
X0095800Y0148417D02*
X0096200Y0148417D01*
X0096200Y0149615D02*
X0095800Y0149615D01*
X0095800Y0150814D02*
X0080400Y0150814D01*
X0080400Y0152012D02*
X0091800Y0152012D01*
X0092271Y0153211D02*
X0080012Y0153211D01*
X0078813Y0154409D02*
X0088822Y0154409D01*
X0088112Y0155608D02*
X0076325Y0155608D01*
X0077523Y0156806D02*
X0088000Y0156806D01*
X0088387Y0158005D02*
X0078722Y0158005D01*
X0079920Y0159203D02*
X0088600Y0159203D01*
X0088600Y0160402D02*
X0081119Y0160402D01*
X0082317Y0161601D02*
X0088600Y0161601D01*
X0088600Y0162799D02*
X0083516Y0162799D01*
X0085689Y0163998D02*
X0088600Y0163998D01*
X0088600Y0165196D02*
X0086541Y0165196D01*
X0086766Y0166395D02*
X0088600Y0166395D01*
X0087614Y0170291D02*
X0083246Y0170291D01*
X0065529Y0152575D01*
X0065529Y0124584D01*
X0062455Y0121510D01*
X0050644Y0121510D01*
X0045134Y0116000D01*
X0031000Y0116000D01*
X0035107Y0111263D02*
X0040940Y0111263D01*
X0042138Y0112462D02*
X0037250Y0112462D01*
X0036724Y0110065D02*
X0039741Y0110065D01*
X0038543Y0108866D02*
X0037922Y0108866D01*
X0039071Y0106000D02*
X0052181Y0119110D01*
X0063992Y0119110D01*
X0067929Y0123047D01*
X0067929Y0150606D01*
X0083677Y0166354D01*
X0079550Y0169990D02*
X0060698Y0169990D01*
X0060869Y0169819D02*
X0059519Y0171169D01*
X0057755Y0171900D01*
X0049845Y0171900D01*
X0048081Y0171169D01*
X0046731Y0169819D01*
X0046000Y0168055D01*
X0046000Y0166145D01*
X0046731Y0164381D01*
X0048081Y0163031D01*
X0049845Y0162300D01*
X0057755Y0162300D01*
X0059519Y0163031D01*
X0060869Y0164381D01*
X0061600Y0166145D01*
X0061600Y0168055D01*
X0060869Y0169819D01*
X0061295Y0168792D02*
X0078352Y0168792D01*
X0077153Y0167593D02*
X0061600Y0167593D01*
X0061600Y0166395D02*
X0075955Y0166395D01*
X0074756Y0165196D02*
X0061207Y0165196D01*
X0060486Y0163998D02*
X0073558Y0163998D01*
X0072359Y0162799D02*
X0058960Y0162799D01*
X0065168Y0155608D02*
X0043400Y0155608D01*
X0043400Y0156806D02*
X0066367Y0156806D01*
X0067565Y0158005D02*
X0043400Y0158005D01*
X0043400Y0159203D02*
X0068764Y0159203D01*
X0069962Y0160402D02*
X0043400Y0160402D01*
X0043400Y0161601D02*
X0071161Y0161601D01*
X0063970Y0154409D02*
X0042804Y0154409D01*
X0041605Y0153211D02*
X0063195Y0153211D01*
X0063129Y0152012D02*
X0040407Y0152012D01*
X0039208Y0150814D02*
X0063129Y0150814D01*
X0063129Y0149615D02*
X0038010Y0149615D01*
X0036811Y0148417D02*
X0063129Y0148417D01*
X0063129Y0147218D02*
X0035612Y0147218D01*
X0034414Y0146020D02*
X0063129Y0146020D01*
X0063129Y0144821D02*
X0058118Y0144821D01*
X0057740Y0145200D02*
X0056200Y0145200D01*
X0056200Y0141200D01*
X0060200Y0141200D01*
X0060200Y0142740D01*
X0057740Y0145200D01*
X0056200Y0144821D02*
X0055800Y0144821D01*
X0055800Y0145200D02*
X0054260Y0145200D01*
X0051800Y0142740D01*
X0051800Y0141200D01*
X0055800Y0141200D01*
X0055800Y0145200D01*
X0055800Y0143623D02*
X0056200Y0143623D01*
X0056200Y0142424D02*
X0055800Y0142424D01*
X0055800Y0141226D02*
X0056200Y0141226D01*
X0056200Y0141200D02*
X0055800Y0141200D01*
X0055800Y0140800D01*
X0056200Y0140800D01*
X0056200Y0141200D01*
X0056200Y0140800D02*
X0060200Y0140800D01*
X0060200Y0139260D01*
X0057740Y0136800D01*
X0056200Y0136800D01*
X0056200Y0140800D01*
X0055800Y0140800D02*
X0055800Y0136800D01*
X0054260Y0136800D01*
X0051800Y0139260D01*
X0051800Y0140800D01*
X0055800Y0140800D01*
X0055800Y0140027D02*
X0056200Y0140027D01*
X0056200Y0138829D02*
X0055800Y0138829D01*
X0055800Y0137630D02*
X0056200Y0137630D01*
X0058570Y0137630D02*
X0063129Y0137630D01*
X0063129Y0136432D02*
X0004937Y0136432D01*
X0004937Y0137630D02*
X0023147Y0137630D01*
X0021949Y0138829D02*
X0004937Y0138829D01*
X0004937Y0140027D02*
X0021600Y0140027D01*
X0021600Y0141226D02*
X0004937Y0141226D01*
X0004937Y0142424D02*
X0021600Y0142424D01*
X0022400Y0143623D02*
X0004937Y0143623D01*
X0004937Y0144821D02*
X0023599Y0144821D01*
X0026000Y0141000D02*
X0041000Y0156000D01*
X0041000Y0184900D01*
X0041000Y0206000D01*
X0047024Y0212024D01*
X0085990Y0212024D01*
X0085000Y0217000D02*
X0080200Y0217000D01*
X0085000Y0217000D02*
X0085990Y0217929D01*
X0086200Y0223000D02*
X0085990Y0223835D01*
X0086200Y0223000D02*
X0088600Y0223000D01*
X0091000Y0228474D01*
X0091000Y0156474D01*
X0093178Y0154409D02*
X0093470Y0154409D01*
X0093888Y0155608D02*
X0098994Y0155608D01*
X0098994Y0156806D02*
X0094000Y0156806D01*
X0093613Y0158005D02*
X0098994Y0158005D01*
X0098994Y0159203D02*
X0093400Y0159203D01*
X0093400Y0160402D02*
X0098994Y0160402D01*
X0098994Y0161601D02*
X0093400Y0161601D01*
X0093400Y0162799D02*
X0098994Y0162799D01*
X0098994Y0163998D02*
X0093400Y0163998D01*
X0093400Y0165196D02*
X0098994Y0165196D01*
X0098994Y0166395D02*
X0093400Y0166395D01*
X0093400Y0167593D02*
X0098994Y0167593D01*
X0098994Y0168792D02*
X0093400Y0168792D01*
X0093400Y0169990D02*
X0098994Y0169990D01*
X0098994Y0171189D02*
X0093400Y0171189D01*
X0093400Y0172387D02*
X0098994Y0172387D01*
X0098994Y0173586D02*
X0093400Y0173586D01*
X0093400Y0174784D02*
X0098994Y0174784D01*
X0098994Y0175983D02*
X0093400Y0175983D01*
X0093400Y0177181D02*
X0098994Y0177181D01*
X0098994Y0178380D02*
X0093400Y0178380D01*
X0093400Y0179578D02*
X0098994Y0179578D01*
X0098994Y0180777D02*
X0093400Y0180777D01*
X0093400Y0181975D02*
X0098994Y0181975D01*
X0098994Y0183174D02*
X0093400Y0183174D01*
X0093400Y0184372D02*
X0098994Y0184372D01*
X0098994Y0185571D02*
X0093400Y0185571D01*
X0093400Y0186769D02*
X0098994Y0186769D01*
X0098994Y0187968D02*
X0093400Y0187968D01*
X0093400Y0189166D02*
X0099276Y0189166D01*
X0100273Y0190365D02*
X0093400Y0190365D01*
X0093400Y0191563D02*
X0100325Y0191563D01*
X0100931Y0192762D02*
X0093400Y0192762D01*
X0093400Y0193960D02*
X0104210Y0193960D01*
X0104399Y0195159D02*
X0093400Y0195159D01*
X0093400Y0196357D02*
X0105199Y0196357D01*
X0103362Y0190824D02*
X0103362Y0189976D01*
X0101394Y0188008D01*
X0101394Y0126984D01*
X0069898Y0095488D01*
X0069898Y0079740D01*
X0065961Y0075803D01*
X0028559Y0075803D01*
X0027067Y0077705D02*
X0004937Y0077705D01*
X0004937Y0078903D02*
X0065667Y0078903D01*
X0066865Y0080102D02*
X0004937Y0080102D01*
X0004937Y0081300D02*
X0067498Y0081300D01*
X0067498Y0082499D02*
X0037004Y0082499D01*
X0036997Y0082491D02*
X0037509Y0083003D01*
X0037934Y0083589D01*
X0038263Y0084234D01*
X0038487Y0084923D01*
X0038594Y0085600D01*
X0031400Y0085600D01*
X0031400Y0086400D01*
X0030600Y0086400D01*
X0030600Y0090600D01*
X0027638Y0090600D01*
X0026923Y0090487D01*
X0026234Y0090263D01*
X0025589Y0089934D01*
X0025003Y0089509D01*
X0024491Y0088997D01*
X0024066Y0088411D01*
X0023737Y0087766D01*
X0023513Y0087077D01*
X0023406Y0086400D01*
X0030600Y0086400D01*
X0030600Y0085600D01*
X0031400Y0085600D01*
X0031400Y0081400D01*
X0034362Y0081400D01*
X0035077Y0081513D01*
X0035766Y0081737D01*
X0036411Y0082066D01*
X0036997Y0082491D01*
X0037989Y0083697D02*
X0067498Y0083697D01*
X0067498Y0084896D02*
X0038478Y0084896D01*
X0038594Y0086400D02*
X0038487Y0087077D01*
X0038263Y0087766D01*
X0037934Y0088411D01*
X0037509Y0088997D01*
X0036997Y0089509D01*
X0036411Y0089934D01*
X0035766Y0090263D01*
X0035077Y0090487D01*
X0034362Y0090600D01*
X0031400Y0090600D01*
X0031400Y0086400D01*
X0038594Y0086400D01*
X0038417Y0087293D02*
X0056151Y0087293D01*
X0054953Y0088491D02*
X0037876Y0088491D01*
X0036747Y0089690D02*
X0054950Y0089690D01*
X0054950Y0088494D02*
X0058494Y0084950D01*
X0063506Y0084950D01*
X0067050Y0088494D01*
X0067050Y0093506D01*
X0063506Y0097050D01*
X0058494Y0097050D01*
X0054950Y0093506D01*
X0054950Y0088494D01*
X0054950Y0090888D02*
X0004937Y0090888D01*
X0004937Y0089690D02*
X0025253Y0089690D01*
X0024124Y0088491D02*
X0004937Y0088491D01*
X0004937Y0087293D02*
X0023583Y0087293D01*
X0023406Y0085600D02*
X0023513Y0084923D01*
X0023737Y0084234D01*
X0024066Y0083589D01*
X0024491Y0083003D01*
X0025003Y0082491D01*
X0025589Y0082066D01*
X0026234Y0081737D01*
X0026923Y0081513D01*
X0027638Y0081400D01*
X0030600Y0081400D01*
X0030600Y0085600D01*
X0023406Y0085600D01*
X0023522Y0084896D02*
X0004937Y0084896D01*
X0004937Y0086094D02*
X0030600Y0086094D01*
X0031400Y0086094D02*
X0057350Y0086094D01*
X0054950Y0092087D02*
X0036875Y0092087D01*
X0036719Y0091931D02*
X0038069Y0093281D01*
X0038800Y0095045D01*
X0038800Y0096955D01*
X0038069Y0098719D01*
X0036719Y0100069D01*
X0034955Y0100800D01*
X0027045Y0100800D01*
X0025281Y0100069D01*
X0023931Y0098719D01*
X0023200Y0096955D01*
X0023200Y0095045D01*
X0023931Y0093281D01*
X0025281Y0091931D01*
X0027045Y0091200D01*
X0034955Y0091200D01*
X0036719Y0091931D01*
X0038071Y0093285D02*
X0054950Y0093285D01*
X0055928Y0094484D02*
X0038567Y0094484D01*
X0038800Y0095682D02*
X0057126Y0095682D01*
X0058325Y0096881D02*
X0038800Y0096881D01*
X0038334Y0098079D02*
X0069095Y0098079D01*
X0067896Y0096881D02*
X0063675Y0096881D01*
X0064874Y0095682D02*
X0067498Y0095682D01*
X0067498Y0094484D02*
X0066072Y0094484D01*
X0067050Y0093285D02*
X0067498Y0093285D01*
X0067498Y0092087D02*
X0067050Y0092087D01*
X0067050Y0090888D02*
X0067498Y0090888D01*
X0067498Y0089690D02*
X0067050Y0089690D01*
X0067047Y0088491D02*
X0067498Y0088491D01*
X0067498Y0087293D02*
X0065849Y0087293D01*
X0064650Y0086094D02*
X0067498Y0086094D01*
X0074698Y0086094D02*
X0097025Y0086094D01*
X0097025Y0084896D02*
X0074698Y0084896D01*
X0074698Y0083697D02*
X0097025Y0083697D01*
X0097025Y0082499D02*
X0074698Y0082499D01*
X0074698Y0081300D02*
X0097025Y0081300D01*
X0097025Y0080102D02*
X0074698Y0080102D01*
X0074698Y0078903D02*
X0097025Y0078903D01*
X0097025Y0077705D02*
X0074464Y0077705D01*
X0073452Y0076506D02*
X0097025Y0076506D01*
X0097025Y0075308D02*
X0072253Y0075308D01*
X0071055Y0074109D02*
X0097025Y0074109D01*
X0097025Y0072911D02*
X0069856Y0072911D01*
X0068658Y0071712D02*
X0097025Y0071712D01*
X0097025Y0070514D02*
X0060560Y0070514D01*
X0059361Y0069315D02*
X0097025Y0069315D01*
X0097025Y0068117D02*
X0058833Y0068117D01*
X0058833Y0066918D02*
X0097025Y0066918D01*
X0097025Y0065720D02*
X0058833Y0065720D01*
X0058833Y0064521D02*
X0077117Y0064521D01*
X0077996Y0065400D02*
X0075419Y0062823D01*
X0075419Y0059177D01*
X0077996Y0056600D01*
X0081641Y0056600D01*
X0084219Y0059177D01*
X0084219Y0062823D01*
X0081641Y0065400D01*
X0077996Y0065400D01*
X0075919Y0063323D02*
X0058833Y0063323D01*
X0058833Y0062124D02*
X0075419Y0062124D01*
X0075419Y0060926D02*
X0058833Y0060926D01*
X0058833Y0059727D02*
X0075419Y0059727D01*
X0076068Y0058529D02*
X0058833Y0058529D01*
X0058833Y0057330D02*
X0077266Y0057330D01*
X0082371Y0057330D02*
X0091321Y0057330D01*
X0090123Y0058529D02*
X0083570Y0058529D01*
X0084219Y0059727D02*
X0089474Y0059727D01*
X0089474Y0060926D02*
X0084219Y0060926D01*
X0084219Y0062124D02*
X0089474Y0062124D01*
X0089974Y0063323D02*
X0083719Y0063323D01*
X0082520Y0064521D02*
X0091173Y0064521D01*
X0096575Y0064521D02*
X0097025Y0064521D01*
X0094076Y0056132D02*
X0058833Y0056132D01*
X0058833Y0054933D02*
X0092877Y0054933D01*
X0087742Y0053734D02*
X0058833Y0053734D01*
X0058833Y0052536D02*
X0086543Y0052536D01*
X0085345Y0051337D02*
X0058833Y0051337D01*
X0058833Y0050139D02*
X0084294Y0050139D01*
X0084033Y0048940D02*
X0058833Y0048940D01*
X0058833Y0047742D02*
X0084033Y0047742D01*
X0084033Y0046543D02*
X0058833Y0046543D01*
X0058833Y0045345D02*
X0084033Y0045345D01*
X0084033Y0044146D02*
X0058833Y0044146D01*
X0058833Y0042948D02*
X0084033Y0042948D01*
X0084033Y0041749D02*
X0058833Y0041749D01*
X0058833Y0040551D02*
X0084033Y0040551D01*
X0083563Y0039352D02*
X0069303Y0039352D01*
X0068256Y0040400D02*
X0064611Y0040400D01*
X0062033Y0037823D01*
X0062033Y0034177D01*
X0064611Y0031600D01*
X0068256Y0031600D01*
X0070833Y0034177D01*
X0070833Y0037823D01*
X0068256Y0040400D01*
X0070502Y0038154D02*
X0082364Y0038154D01*
X0082033Y0036955D02*
X0070833Y0036955D01*
X0070833Y0035757D02*
X0082033Y0035757D01*
X0082033Y0034558D02*
X0070833Y0034558D01*
X0070015Y0033360D02*
X0082851Y0033360D01*
X0084049Y0032161D02*
X0068817Y0032161D01*
X0064049Y0032161D02*
X0058817Y0032161D01*
X0060015Y0033360D02*
X0062851Y0033360D01*
X0062033Y0034558D02*
X0060833Y0034558D01*
X0060833Y0035757D02*
X0062033Y0035757D01*
X0062033Y0036955D02*
X0060833Y0036955D01*
X0060502Y0038154D02*
X0062364Y0038154D01*
X0063563Y0039352D02*
X0059303Y0039352D01*
X0025868Y0076506D02*
X0004937Y0076506D01*
X0004937Y0075308D02*
X0024670Y0075308D01*
X0023471Y0074109D02*
X0004937Y0074109D01*
X0004937Y0072911D02*
X0022319Y0072911D01*
X0021986Y0071712D02*
X0004937Y0071712D01*
X0004937Y0070514D02*
X0021986Y0070514D01*
X0021986Y0069315D02*
X0004937Y0069315D01*
X0004937Y0068117D02*
X0021986Y0068117D01*
X0021986Y0066918D02*
X0004937Y0066918D01*
X0004937Y0065720D02*
X0021986Y0065720D01*
X0021986Y0064521D02*
X0004937Y0064521D01*
X0004937Y0063323D02*
X0021986Y0063323D01*
X0021986Y0062124D02*
X0004937Y0062124D01*
X0004937Y0060926D02*
X0021986Y0060926D01*
X0021986Y0059727D02*
X0004937Y0059727D01*
X0004937Y0058529D02*
X0021986Y0058529D01*
X0021986Y0057330D02*
X0004937Y0057330D01*
X0004937Y0056132D02*
X0021986Y0056132D01*
X0021986Y0054933D02*
X0004937Y0054933D01*
X0004937Y0053734D02*
X0021986Y0053734D01*
X0021986Y0052536D02*
X0004937Y0052536D01*
X0004937Y0051337D02*
X0021986Y0051337D01*
X0021986Y0050139D02*
X0004937Y0050139D01*
X0004937Y0048940D02*
X0021986Y0048940D01*
X0021986Y0047742D02*
X0004937Y0047742D01*
X0004937Y0046543D02*
X0021986Y0046543D01*
X0021986Y0045345D02*
X0004937Y0045345D01*
X0004937Y0044146D02*
X0021986Y0044146D01*
X0021986Y0042948D02*
X0004937Y0042948D01*
X0004937Y0041749D02*
X0021986Y0041749D01*
X0021986Y0040551D02*
X0004937Y0040551D01*
X0004937Y0029764D02*
X0134858Y0029764D01*
X0134858Y0028566D02*
X0004937Y0028566D01*
X0004937Y0027367D02*
X0134858Y0027367D01*
X0134858Y0026169D02*
X0004937Y0026169D01*
X0004937Y0024970D02*
X0134858Y0024970D01*
X0134858Y0023772D02*
X0018402Y0023772D01*
X0017611Y0024099D02*
X0020588Y0022866D01*
X0022866Y0020588D01*
X0024099Y0017611D01*
X0024099Y0014389D01*
X0022866Y0011412D01*
X0020588Y0009134D01*
X0017611Y0007901D01*
X0014389Y0007901D01*
X0011412Y0009134D01*
X0009134Y0011412D01*
X0007901Y0014389D01*
X0007901Y0017611D01*
X0009134Y0020588D01*
X0011412Y0022866D01*
X0014389Y0024099D01*
X0017611Y0024099D01*
X0013598Y0023772D02*
X0004937Y0023772D01*
X0004937Y0022573D02*
X0011119Y0022573D01*
X0009921Y0021375D02*
X0004937Y0021375D01*
X0004937Y0020176D02*
X0008963Y0020176D01*
X0008467Y0018978D02*
X0004937Y0018978D01*
X0004937Y0017779D02*
X0007970Y0017779D01*
X0007901Y0016581D02*
X0004937Y0016581D01*
X0004937Y0015382D02*
X0007901Y0015382D01*
X0007986Y0014184D02*
X0004937Y0014184D01*
X0004937Y0012985D02*
X0008482Y0012985D01*
X0008979Y0011787D02*
X0004937Y0011787D01*
X0004937Y0010588D02*
X0009958Y0010588D01*
X0011156Y0009390D02*
X0004937Y0009390D01*
X0004937Y0008191D02*
X0013688Y0008191D01*
X0018312Y0008191D02*
X0134858Y0008191D01*
X0134858Y0006993D02*
X0004937Y0006993D01*
X0004937Y0005794D02*
X0134858Y0005794D01*
X0134858Y0009390D02*
X0020844Y0009390D01*
X0022042Y0010588D02*
X0134858Y0010588D01*
X0134858Y0011787D02*
X0023021Y0011787D01*
X0023518Y0012985D02*
X0134858Y0012985D01*
X0134858Y0014184D02*
X0024014Y0014184D01*
X0024099Y0015382D02*
X0134858Y0015382D01*
X0134858Y0016581D02*
X0024099Y0016581D01*
X0024030Y0017779D02*
X0134858Y0017779D01*
X0134858Y0018978D02*
X0023533Y0018978D01*
X0023037Y0020176D02*
X0134858Y0020176D01*
X0134858Y0021375D02*
X0022079Y0021375D01*
X0020881Y0022573D02*
X0134858Y0022573D01*
X0097025Y0087293D02*
X0096389Y0087293D01*
X0091359Y0087293D02*
X0082334Y0087293D01*
X0081641Y0086600D02*
X0084219Y0089177D01*
X0084219Y0092823D01*
X0081641Y0095400D01*
X0077996Y0095400D01*
X0075419Y0092823D01*
X0075419Y0089177D01*
X0077996Y0086600D01*
X0081641Y0086600D01*
X0083533Y0088491D02*
X0090160Y0088491D01*
X0089474Y0089690D02*
X0084219Y0089690D01*
X0084219Y0090888D02*
X0089474Y0090888D01*
X0089474Y0092087D02*
X0084219Y0092087D01*
X0083756Y0093285D02*
X0089937Y0093285D01*
X0091135Y0094484D02*
X0082558Y0094484D01*
X0079277Y0098079D02*
X0097025Y0098079D01*
X0097025Y0096881D02*
X0078079Y0096881D01*
X0076880Y0095682D02*
X0097025Y0095682D01*
X0097025Y0094484D02*
X0096613Y0094484D01*
X0082278Y0111263D02*
X0061400Y0111263D01*
X0060600Y0111263D02*
X0047728Y0111263D01*
X0046530Y0110065D02*
X0055150Y0110065D01*
X0055150Y0108866D02*
X0045331Y0108866D01*
X0044132Y0107668D02*
X0056059Y0107668D01*
X0057258Y0106469D02*
X0042934Y0106469D01*
X0041735Y0105270D02*
X0058456Y0105270D01*
X0060600Y0105270D02*
X0061400Y0105270D01*
X0061400Y0106469D02*
X0060600Y0106469D01*
X0060600Y0107668D02*
X0061400Y0107668D01*
X0061400Y0108866D02*
X0060600Y0108866D01*
X0060600Y0110065D02*
X0061400Y0110065D01*
X0064742Y0106469D02*
X0077484Y0106469D01*
X0076286Y0105270D02*
X0063544Y0105270D01*
X0065941Y0107668D02*
X0078683Y0107668D01*
X0079881Y0108866D02*
X0066850Y0108866D01*
X0066850Y0110065D02*
X0081080Y0110065D01*
X0083477Y0112462D02*
X0066850Y0112462D01*
X0066613Y0113660D02*
X0084675Y0113660D01*
X0085874Y0114859D02*
X0065415Y0114859D01*
X0064216Y0116057D02*
X0087072Y0116057D01*
X0088271Y0117256D02*
X0065532Y0117256D01*
X0066730Y0118454D02*
X0089469Y0118454D01*
X0090668Y0119653D02*
X0067929Y0119653D01*
X0061997Y0124447D02*
X0004937Y0124447D01*
X0004937Y0125645D02*
X0063129Y0125645D01*
X0063129Y0126844D02*
X0004937Y0126844D01*
X0004937Y0128042D02*
X0063129Y0128042D01*
X0063129Y0129241D02*
X0004937Y0129241D01*
X0004937Y0130439D02*
X0063129Y0130439D01*
X0063129Y0131638D02*
X0004937Y0131638D01*
X0004937Y0132836D02*
X0063129Y0132836D01*
X0063129Y0134035D02*
X0004937Y0134035D01*
X0004937Y0135233D02*
X0063129Y0135233D01*
X0063129Y0138829D02*
X0059768Y0138829D01*
X0060200Y0140027D02*
X0063129Y0140027D01*
X0063129Y0141226D02*
X0060200Y0141226D01*
X0060200Y0142424D02*
X0063129Y0142424D01*
X0063129Y0143623D02*
X0059317Y0143623D01*
X0053882Y0144821D02*
X0033215Y0144821D01*
X0032017Y0143623D02*
X0052683Y0143623D01*
X0051800Y0142424D02*
X0030818Y0142424D01*
X0030400Y0141226D02*
X0051800Y0141226D01*
X0051800Y0140027D02*
X0030400Y0140027D01*
X0030051Y0138829D02*
X0052231Y0138829D01*
X0053430Y0137630D02*
X0028853Y0137630D01*
X0027626Y0146020D02*
X0004937Y0146020D01*
X0004937Y0147218D02*
X0028824Y0147218D01*
X0030023Y0148417D02*
X0004937Y0148417D01*
X0004937Y0149615D02*
X0031221Y0149615D01*
X0032420Y0150814D02*
X0004937Y0150814D01*
X0004937Y0152012D02*
X0033618Y0152012D01*
X0034817Y0153211D02*
X0004937Y0153211D01*
X0004937Y0154409D02*
X0036015Y0154409D01*
X0037214Y0155608D02*
X0004937Y0155608D01*
X0004937Y0156806D02*
X0038412Y0156806D01*
X0038600Y0158005D02*
X0004937Y0158005D01*
X0004937Y0159203D02*
X0038600Y0159203D01*
X0038600Y0160402D02*
X0004937Y0160402D01*
X0004937Y0161601D02*
X0038600Y0161601D01*
X0038600Y0162799D02*
X0033360Y0162799D01*
X0033919Y0163031D02*
X0035269Y0164381D01*
X0036000Y0166145D01*
X0036000Y0168055D01*
X0035269Y0169819D01*
X0033919Y0171169D01*
X0032155Y0171900D01*
X0024245Y0171900D01*
X0022481Y0171169D01*
X0021131Y0169819D01*
X0020400Y0168055D01*
X0020400Y0166145D01*
X0021131Y0164381D01*
X0022481Y0163031D01*
X0024245Y0162300D01*
X0032155Y0162300D01*
X0033919Y0163031D01*
X0034886Y0163998D02*
X0038600Y0163998D01*
X0038600Y0165196D02*
X0035607Y0165196D01*
X0036000Y0166395D02*
X0038600Y0166395D01*
X0038600Y0167593D02*
X0036000Y0167593D01*
X0035695Y0168792D02*
X0038600Y0168792D01*
X0038600Y0169990D02*
X0035098Y0169990D01*
X0033872Y0171189D02*
X0038600Y0171189D01*
X0038600Y0172387D02*
X0004937Y0172387D01*
X0004937Y0171189D02*
X0022528Y0171189D01*
X0021302Y0169990D02*
X0004937Y0169990D01*
X0004937Y0168792D02*
X0020705Y0168792D01*
X0020400Y0167593D02*
X0004937Y0167593D01*
X0004937Y0166395D02*
X0020400Y0166395D01*
X0020793Y0165196D02*
X0004937Y0165196D01*
X0004937Y0163998D02*
X0021514Y0163998D01*
X0023040Y0162799D02*
X0004937Y0162799D01*
X0004937Y0173586D02*
X0038600Y0173586D01*
X0038600Y0174784D02*
X0004937Y0174784D01*
X0004937Y0175983D02*
X0038600Y0175983D01*
X0038600Y0177181D02*
X0004937Y0177181D01*
X0004937Y0178380D02*
X0038600Y0178380D01*
X0038600Y0179578D02*
X0004937Y0179578D01*
X0004937Y0180777D02*
X0022612Y0180777D01*
X0021337Y0181975D02*
X0004937Y0181975D01*
X0004937Y0183174D02*
X0020720Y0183174D01*
X0020400Y0184372D02*
X0004937Y0184372D01*
X0004937Y0185571D02*
X0020400Y0185571D01*
X0020779Y0186769D02*
X0004937Y0186769D01*
X0004937Y0187968D02*
X0021480Y0187968D01*
X0022957Y0189166D02*
X0004937Y0189166D01*
X0004937Y0190365D02*
X0038600Y0190365D01*
X0038600Y0191563D02*
X0004937Y0191563D01*
X0004937Y0192762D02*
X0038600Y0192762D01*
X0038600Y0193960D02*
X0004937Y0193960D01*
X0004937Y0195159D02*
X0038600Y0195159D01*
X0038600Y0196357D02*
X0004937Y0196357D01*
X0004937Y0197556D02*
X0038600Y0197556D01*
X0038600Y0198754D02*
X0004937Y0198754D01*
X0004937Y0199953D02*
X0038600Y0199953D01*
X0038600Y0201151D02*
X0004937Y0201151D01*
X0004937Y0202350D02*
X0024125Y0202350D01*
X0024245Y0202300D02*
X0032155Y0202300D01*
X0033919Y0203031D01*
X0035269Y0204381D01*
X0036000Y0206145D01*
X0036000Y0208055D01*
X0035269Y0209819D01*
X0033919Y0211169D01*
X0032155Y0211900D01*
X0024245Y0211900D01*
X0022481Y0211169D01*
X0021131Y0209819D01*
X0020400Y0208055D01*
X0020400Y0206145D01*
X0021131Y0204381D01*
X0022481Y0203031D01*
X0024245Y0202300D01*
X0021963Y0203548D02*
X0004937Y0203548D01*
X0004937Y0204747D02*
X0020979Y0204747D01*
X0020483Y0205945D02*
X0004937Y0205945D01*
X0004937Y0207144D02*
X0020400Y0207144D01*
X0020519Y0208342D02*
X0004937Y0208342D01*
X0004937Y0209541D02*
X0021016Y0209541D01*
X0022051Y0210739D02*
X0004937Y0210739D01*
X0004937Y0211938D02*
X0043544Y0211938D01*
X0044742Y0213137D02*
X0004937Y0213137D01*
X0004937Y0214335D02*
X0046332Y0214335D01*
X0042345Y0210739D02*
X0034349Y0210739D01*
X0035384Y0209541D02*
X0041147Y0209541D01*
X0039948Y0208342D02*
X0035881Y0208342D01*
X0036000Y0207144D02*
X0038876Y0207144D01*
X0038600Y0205945D02*
X0035917Y0205945D01*
X0035421Y0204747D02*
X0038600Y0204747D01*
X0038600Y0203548D02*
X0034437Y0203548D01*
X0032275Y0202350D02*
X0038600Y0202350D01*
X0043400Y0202350D02*
X0049725Y0202350D01*
X0047563Y0203548D02*
X0043400Y0203548D01*
X0043400Y0204747D02*
X0046579Y0204747D01*
X0046083Y0205945D02*
X0044340Y0205945D01*
X0045538Y0207144D02*
X0046000Y0207144D01*
X0043400Y0201151D02*
X0088600Y0201151D01*
X0088600Y0199953D02*
X0043400Y0199953D01*
X0043400Y0198754D02*
X0088600Y0198754D01*
X0088600Y0197556D02*
X0043400Y0197556D01*
X0043400Y0196357D02*
X0088600Y0196357D01*
X0088600Y0195159D02*
X0043400Y0195159D01*
X0043400Y0193960D02*
X0088600Y0193960D01*
X0088600Y0192762D02*
X0043400Y0192762D01*
X0043400Y0191563D02*
X0088600Y0191563D01*
X0088600Y0190365D02*
X0043400Y0190365D01*
X0037100Y0184900D02*
X0028200Y0184900D01*
X0043400Y0179578D02*
X0088600Y0179578D01*
X0088600Y0178380D02*
X0043400Y0178380D01*
X0043400Y0177181D02*
X0088600Y0177181D01*
X0088600Y0175983D02*
X0043400Y0175983D01*
X0043400Y0174784D02*
X0088600Y0174784D01*
X0088600Y0173586D02*
X0043400Y0173586D01*
X0043400Y0172387D02*
X0082034Y0172387D01*
X0080749Y0171189D02*
X0059472Y0171189D01*
X0059388Y0180777D02*
X0088600Y0180777D01*
X0088600Y0181975D02*
X0060663Y0181975D01*
X0061280Y0183174D02*
X0088600Y0183174D01*
X0088600Y0184372D02*
X0061600Y0184372D01*
X0061600Y0185571D02*
X0088600Y0185571D01*
X0088600Y0186769D02*
X0061221Y0186769D01*
X0060520Y0187968D02*
X0088600Y0187968D01*
X0088600Y0189166D02*
X0059043Y0189166D01*
X0048128Y0171189D02*
X0043400Y0171189D01*
X0043400Y0169990D02*
X0046902Y0169990D01*
X0046305Y0168792D02*
X0043400Y0168792D01*
X0043400Y0167593D02*
X0046000Y0167593D01*
X0046000Y0166395D02*
X0043400Y0166395D01*
X0043400Y0165196D02*
X0046393Y0165196D01*
X0047114Y0163998D02*
X0043400Y0163998D01*
X0043400Y0162799D02*
X0048640Y0162799D01*
X0070332Y0149615D02*
X0071600Y0149615D01*
X0071600Y0150814D02*
X0071531Y0150814D01*
X0072361Y0148417D02*
X0070329Y0148417D01*
X0070329Y0147218D02*
X0073559Y0147218D01*
X0078441Y0147218D02*
X0093842Y0147218D01*
X0092643Y0148417D02*
X0079639Y0148417D01*
X0080400Y0149615D02*
X0091800Y0149615D01*
X0095800Y0152012D02*
X0096200Y0152012D01*
X0096200Y0153211D02*
X0095800Y0153211D01*
X0095800Y0154409D02*
X0096200Y0154409D01*
X0098530Y0154409D02*
X0098994Y0154409D01*
X0098994Y0135233D02*
X0077989Y0135233D01*
X0079188Y0134035D02*
X0093095Y0134035D01*
X0091897Y0132836D02*
X0080386Y0132836D01*
X0080400Y0131638D02*
X0091800Y0131638D01*
X0091800Y0130800D02*
X0091800Y0129260D01*
X0094260Y0126800D01*
X0095800Y0126800D01*
X0095800Y0130800D01*
X0091800Y0130800D01*
X0091800Y0130439D02*
X0080400Y0130439D01*
X0080400Y0129241D02*
X0091820Y0129241D01*
X0093018Y0128042D02*
X0079265Y0128042D01*
X0078066Y0126844D02*
X0094217Y0126844D01*
X0095800Y0126844D02*
X0096200Y0126844D01*
X0096200Y0128042D02*
X0095800Y0128042D01*
X0095800Y0129241D02*
X0096200Y0129241D01*
X0096200Y0130439D02*
X0095800Y0130439D01*
X0095800Y0131638D02*
X0096200Y0131638D01*
X0096200Y0132836D02*
X0095800Y0132836D01*
X0095800Y0134035D02*
X0096200Y0134035D01*
X0098905Y0134035D02*
X0098994Y0134035D01*
X0098982Y0128042D02*
X0098994Y0128042D01*
X0097859Y0126844D02*
X0097783Y0126844D01*
X0115750Y0137630D02*
X0116700Y0137630D01*
X0123436Y0117355D02*
X0123436Y0117355D01*
X0117368Y0102873D02*
X0131410Y0102873D01*
X0122897Y0101675D02*
X0116677Y0101675D01*
X0115478Y0100476D02*
X0122108Y0100476D01*
X0077080Y0094484D02*
X0075682Y0094484D01*
X0075882Y0093285D02*
X0074698Y0093285D01*
X0074698Y0092087D02*
X0075419Y0092087D01*
X0075419Y0090888D02*
X0074698Y0090888D01*
X0074698Y0089690D02*
X0075419Y0089690D01*
X0076105Y0088491D02*
X0074698Y0088491D01*
X0074698Y0087293D02*
X0077304Y0087293D01*
X0070293Y0099278D02*
X0037510Y0099278D01*
X0035736Y0100476D02*
X0071492Y0100476D01*
X0072690Y0101675D02*
X0036101Y0101675D01*
X0037662Y0102873D02*
X0073889Y0102873D01*
X0075087Y0104072D02*
X0040537Y0104072D01*
X0039071Y0106000D02*
X0031000Y0106000D01*
X0026893Y0111263D02*
X0004937Y0111263D01*
X0004937Y0110065D02*
X0025276Y0110065D01*
X0024078Y0108866D02*
X0004937Y0108866D01*
X0004937Y0107668D02*
X0023495Y0107668D01*
X0023200Y0106469D02*
X0004937Y0106469D01*
X0004937Y0105270D02*
X0023200Y0105270D01*
X0023603Y0104072D02*
X0004937Y0104072D01*
X0004937Y0102873D02*
X0024338Y0102873D01*
X0025899Y0101675D02*
X0004937Y0101675D01*
X0004937Y0100476D02*
X0026264Y0100476D01*
X0024490Y0099278D02*
X0004937Y0099278D01*
X0004937Y0098079D02*
X0023666Y0098079D01*
X0023200Y0096881D02*
X0004937Y0096881D01*
X0004937Y0095682D02*
X0023200Y0095682D01*
X0023433Y0094484D02*
X0004937Y0094484D01*
X0004937Y0093285D02*
X0023929Y0093285D01*
X0025125Y0092087D02*
X0004937Y0092087D01*
X0004937Y0083697D02*
X0024011Y0083697D01*
X0024996Y0082499D02*
X0004937Y0082499D01*
X0004937Y0112462D02*
X0024750Y0112462D01*
X0023774Y0113660D02*
X0004937Y0113660D01*
X0004937Y0114859D02*
X0023277Y0114859D01*
X0023200Y0116057D02*
X0004937Y0116057D01*
X0004937Y0117256D02*
X0023325Y0117256D01*
X0023821Y0118454D02*
X0004937Y0118454D01*
X0004937Y0119653D02*
X0024864Y0119653D01*
X0037136Y0119653D02*
X0045392Y0119653D01*
X0046591Y0120851D02*
X0004937Y0120851D01*
X0004937Y0122050D02*
X0047789Y0122050D01*
X0048988Y0123248D02*
X0004937Y0123248D01*
X0030600Y0089690D02*
X0031400Y0089690D01*
X0031400Y0088491D02*
X0030600Y0088491D01*
X0030600Y0087293D02*
X0031400Y0087293D01*
X0031400Y0084896D02*
X0030600Y0084896D01*
X0030600Y0083697D02*
X0031400Y0083697D01*
X0031400Y0082499D02*
X0030600Y0082499D01*
X0051000Y0111000D02*
X0051400Y0112600D01*
X0050125Y0113660D02*
X0055387Y0113660D01*
X0055150Y0112462D02*
X0048927Y0112462D01*
X0051324Y0114859D02*
X0056585Y0114859D01*
X0057784Y0116057D02*
X0052522Y0116057D01*
X0044194Y0118454D02*
X0038179Y0118454D01*
X0088129Y0202350D02*
X0088600Y0202350D01*
X0071000Y0216000D02*
X0071000Y0221000D01*
X0079740Y0229740D01*
X0085990Y0229740D01*
X0085000Y0235000D02*
X0085990Y0235646D01*
X0080646Y0235646D01*
X0066000Y0221000D01*
X0066000Y0216000D01*
X0063562Y0217931D02*
X0004937Y0217931D01*
X0004937Y0219129D02*
X0063600Y0219129D01*
X0063600Y0220328D02*
X0058304Y0220328D01*
X0057755Y0220100D02*
X0059519Y0220831D01*
X0060869Y0222181D01*
X0061600Y0223945D01*
X0061600Y0225855D01*
X0060869Y0227619D01*
X0059519Y0228969D01*
X0057755Y0229700D01*
X0049845Y0229700D01*
X0048081Y0228969D01*
X0046731Y0227619D01*
X0046000Y0225855D01*
X0046000Y0223945D01*
X0046731Y0222181D01*
X0048081Y0220831D01*
X0049845Y0220100D01*
X0057755Y0220100D01*
X0060214Y0221526D02*
X0063620Y0221526D01*
X0064330Y0222725D02*
X0061094Y0222725D01*
X0061591Y0223923D02*
X0065529Y0223923D01*
X0063573Y0225122D02*
X0061600Y0225122D01*
X0061407Y0226320D02*
X0062915Y0226320D01*
X0062827Y0227519D02*
X0060911Y0227519D01*
X0059771Y0228717D02*
X0063223Y0228717D01*
X0063516Y0229916D02*
X0004937Y0229916D01*
X0004937Y0231114D02*
X0063516Y0231114D01*
X0063516Y0232313D02*
X0004937Y0232313D01*
X0004937Y0233511D02*
X0063516Y0233511D01*
X0063516Y0234710D02*
X0004937Y0234710D01*
X0004937Y0235908D02*
X0063516Y0235908D01*
X0063516Y0237107D02*
X0004937Y0237107D01*
X0004937Y0238305D02*
X0013413Y0238305D01*
X0014389Y0237901D02*
X0011412Y0239134D01*
X0009134Y0241412D01*
X0007901Y0244389D01*
X0007901Y0247611D01*
X0009134Y0250588D01*
X0011412Y0252866D01*
X0014389Y0254099D01*
X0017611Y0254099D01*
X0020588Y0252866D01*
X0022866Y0250588D01*
X0024099Y0247611D01*
X0024099Y0244389D01*
X0022866Y0241412D01*
X0020588Y0239134D01*
X0017611Y0237901D01*
X0014389Y0237901D01*
X0011042Y0239504D02*
X0004937Y0239504D01*
X0004937Y0240702D02*
X0009844Y0240702D01*
X0008931Y0241901D02*
X0004937Y0241901D01*
X0004937Y0243099D02*
X0008435Y0243099D01*
X0007939Y0244298D02*
X0004937Y0244298D01*
X0004937Y0245496D02*
X0007901Y0245496D01*
X0007901Y0246695D02*
X0004937Y0246695D01*
X0004937Y0247893D02*
X0008018Y0247893D01*
X0008514Y0249092D02*
X0004937Y0249092D01*
X0004937Y0250290D02*
X0009011Y0250290D01*
X0010035Y0251489D02*
X0004937Y0251489D01*
X0004937Y0252687D02*
X0011233Y0252687D01*
X0013874Y0253886D02*
X0004937Y0253886D01*
X0004937Y0255084D02*
X0081467Y0255084D01*
X0081467Y0253886D02*
X0018126Y0253886D01*
X0020767Y0252687D02*
X0081467Y0252687D01*
X0081467Y0251489D02*
X0021965Y0251489D01*
X0022989Y0250290D02*
X0081583Y0250290D01*
X0085990Y0247457D02*
X0067457Y0247457D01*
X0065916Y0245916D01*
X0065916Y0227147D01*
X0062960Y0216732D02*
X0004937Y0216732D01*
X0004937Y0215534D02*
X0062911Y0215534D01*
X0049296Y0220328D02*
X0032704Y0220328D01*
X0032155Y0220100D02*
X0033919Y0220831D01*
X0035269Y0222181D01*
X0036000Y0223945D01*
X0036000Y0225855D01*
X0035269Y0227619D01*
X0033919Y0228969D01*
X0032155Y0229700D01*
X0024245Y0229700D01*
X0022481Y0228969D01*
X0021131Y0227619D01*
X0020400Y0225855D01*
X0020400Y0223945D01*
X0021131Y0222181D01*
X0022481Y0220831D01*
X0024245Y0220100D01*
X0032155Y0220100D01*
X0034614Y0221526D02*
X0047386Y0221526D01*
X0046506Y0222725D02*
X0035494Y0222725D01*
X0035991Y0223923D02*
X0046009Y0223923D01*
X0046000Y0225122D02*
X0036000Y0225122D01*
X0035807Y0226320D02*
X0046193Y0226320D01*
X0046689Y0227519D02*
X0035311Y0227519D01*
X0034171Y0228717D02*
X0047829Y0228717D01*
X0063516Y0238305D02*
X0018587Y0238305D01*
X0020958Y0239504D02*
X0063516Y0239504D01*
X0063516Y0240702D02*
X0022156Y0240702D01*
X0023069Y0241901D02*
X0063516Y0241901D01*
X0063516Y0243099D02*
X0023565Y0243099D01*
X0024061Y0244298D02*
X0063516Y0244298D01*
X0063516Y0245496D02*
X0024099Y0245496D01*
X0024099Y0246695D02*
X0063641Y0246695D01*
X0064499Y0247893D02*
X0023982Y0247893D01*
X0023486Y0249092D02*
X0065698Y0249092D01*
X0075803Y0244368D02*
X0078620Y0241551D01*
X0085990Y0241551D01*
X0085704Y0253886D02*
X0086276Y0253886D01*
X0086276Y0255084D02*
X0085704Y0255084D01*
X0085704Y0256283D02*
X0086276Y0256283D01*
X0081953Y0256283D02*
X0004937Y0256283D01*
X0004937Y0228717D02*
X0022229Y0228717D01*
X0021089Y0227519D02*
X0004937Y0227519D01*
X0004937Y0226320D02*
X0020593Y0226320D01*
X0020400Y0225122D02*
X0004937Y0225122D01*
X0004937Y0223923D02*
X0020409Y0223923D01*
X0020906Y0222725D02*
X0004937Y0222725D01*
X0004937Y0221526D02*
X0021786Y0221526D01*
X0023696Y0220328D02*
X0004937Y0220328D01*
X0134858Y0198777D02*
X0134858Y0187911D01*
X0138795Y0186039D02*
X0138795Y0197850D01*
X0152969Y0212024D01*
X0156010Y0212024D01*
X0141700Y0217931D02*
X0139100Y0217931D01*
X0139100Y0219129D02*
X0141700Y0219129D01*
X0141700Y0220328D02*
X0139100Y0220328D01*
X0139100Y0221526D02*
X0141700Y0221526D01*
X0141700Y0222725D02*
X0139100Y0222725D01*
X0139100Y0223923D02*
X0141700Y0223923D01*
X0141700Y0225122D02*
X0139100Y0225122D01*
X0139100Y0226320D02*
X0141700Y0226320D01*
X0141700Y0227519D02*
X0139100Y0227519D01*
X0139100Y0228717D02*
X0141700Y0228717D01*
X0141700Y0229916D02*
X0139100Y0229916D01*
X0139100Y0231114D02*
X0141700Y0231114D01*
X0141700Y0232313D02*
X0139100Y0232313D01*
X0139100Y0233511D02*
X0141700Y0233511D01*
X0141700Y0234710D02*
X0139100Y0234710D01*
X0139100Y0235908D02*
X0141700Y0235908D01*
X0141700Y0237107D02*
X0139100Y0237107D01*
X0138864Y0238305D02*
X0141700Y0238305D01*
X0140651Y0216732D02*
X0139100Y0216732D01*
X0139100Y0215534D02*
X0139452Y0215534D01*
X0141195Y0191563D02*
X0153600Y0191563D01*
X0153600Y0190365D02*
X0141195Y0190365D01*
X0141195Y0189166D02*
X0153600Y0189166D01*
X0153600Y0187968D02*
X0141235Y0187968D01*
X0141836Y0186769D02*
X0153600Y0186769D01*
X0153600Y0185571D02*
X0141884Y0185571D01*
X0141448Y0184372D02*
X0153600Y0184372D01*
X0153600Y0183174D02*
X0139949Y0183174D01*
X0184359Y0213137D02*
X0207924Y0213137D01*
X0206800Y0214335D02*
X0185400Y0214335D01*
X0185400Y0215534D02*
X0206800Y0215534D01*
X0206800Y0216732D02*
X0185400Y0216732D01*
X0185292Y0217931D02*
X0206991Y0217931D01*
X0208189Y0219129D02*
X0184093Y0219129D01*
D18*
X0193913Y0186039D03*
X0176197Y0176197D03*
X0166000Y0181000D03*
X0156000Y0164386D03*
X0138795Y0186039D03*
X0134858Y0187911D03*
X0107299Y0194089D03*
X0103362Y0190824D03*
X0087614Y0170291D03*
X0083677Y0166354D03*
X0071000Y0216000D03*
X0066000Y0216000D03*
X0065916Y0227147D03*
X0075803Y0244368D03*
X0111236Y0244368D03*
X0125016Y0099425D03*
D19*
X0091000Y0156474D03*
X0080200Y0217000D03*
D20*
X0136000Y0146000D02*
X0136000Y0136000D01*
X0141000Y0131000D01*
X0141000Y0031000D01*
X0146000Y0026000D01*
X0186000Y0026000D01*
X0191000Y0031000D01*
X0191000Y0036000D01*
X0181000Y0036000D02*
X0181000Y0046000D01*
X0186000Y0051000D01*
X0191000Y0051000D01*
X0201000Y0061000D01*
X0201000Y0131000D01*
X0206000Y0136000D01*
X0206000Y0146000D01*
X0196000Y0116000D02*
X0196000Y0066000D01*
X0186000Y0056000D01*
X0176000Y0056000D01*
X0171000Y0051000D01*
X0171000Y0036000D01*
X0161000Y0036000D02*
X0146000Y0051000D01*
X0146000Y0116000D01*
M02*
