%
M48
M72
T01C0.0120
T02C0.0138
T03C0.0320
T04C0.0400
T05C0.1260
%
T01
X9100Y15647
X8020Y21700
T02
X12502Y9943
X15600Y16439
X16600Y18100
X17620Y17620
X19391Y18604
X13880Y18604
X13486Y18791
X10730Y19409
X10336Y19082
X8761Y17029
X8368Y16635
X7100Y21600
X6600Y21600
X6592Y22715
X7580Y24437
X11124Y24437
T03
X2439Y3600
X3439Y3600
X5643Y3600
X6643Y3600
X7982Y6100
X9387Y6100
X10887Y6100
X12387Y6100
X12643Y3600
X11643Y3600
X9643Y3600
X8643Y3600
X7982Y9100
X9387Y9100
X10887Y9100
X11297Y10419
X12387Y9100
X13600Y11600
X14600Y11600
X15600Y11600
X16600Y11600
X17600Y11600
X18600Y11600
X19600Y11600
X20600Y11600
X20600Y14600
X19600Y14600
X18600Y14600
X17600Y14600
X16600Y14600
X15600Y14600
X14600Y14600
X13600Y14600
X11297Y13419
X9600Y13100
X9600Y15100
X7600Y15100
X7600Y13100
X5600Y14100
X2600Y14100
X18100Y21600
X18100Y20100
X18100Y18600
X21100Y18600
X21100Y20100
X21100Y21600
T04
X3100Y8600
X3100Y9600
X3100Y10600
X3100Y11600
X6100Y11100
X6100Y9100
X5380Y16710
X5380Y18490
X5380Y20710
X5380Y22490
X2820Y22490
X2820Y20710
X2820Y18490
X2820Y16710
X16100Y3600
X17100Y3600
X18100Y3600
X19100Y3600
X20100Y3600
X21100Y3600
T05
X1600Y24600
X1600Y1600
X21100Y1600
X21100Y24600
M30
